<?xml version="1.0" standalone="no"?>
<!DOCTYPE svg PUBLIC "-//W3C//DTD SVG 1.1//EN" "http://www.w3.org/Graphics/SVG/1.1/DTD/svg11.dtd" >
<svg xmlns="http://www.w3.org/2000/svg">
<metadata>
This is a custom SVG webfont generated by Fontspring.
</metadata>
<defs>
<font id="webfontbqAut62J" horiz-adv-x="259" >
<font-face units-per-em="1000" ascent="800" descent="-200" />
<missing-glyph horiz-adv-x="150" />
<glyph unicode=" "  horiz-adv-x="150" />
<glyph unicode="&#x09;" horiz-adv-x="150" />
<glyph unicode="&#xa0;" horiz-adv-x="150" />
<glyph unicode="!" horiz-adv-x="127" d="M101 767l-15 -616h-40l-14 616h69zM108 29q0 -18 -14 -28.5t-32 -10.5q-17 0 -30 13.5t-13 28.5q0 20 13.5 31.5t33.5 11.5t31 -13t11 -33z" />
<glyph unicode="&#x22;" horiz-adv-x="193" d="M174 767l-15 -210h-30l-15 210h60zM81 767l-15 -210h-30l-15 210h60z" />
<glyph unicode="#" horiz-adv-x="351" d="M337 510h-72l-14 -64h62v-56h-74l-16 -72h-57l16 72h-55l-16 -72h-57l16 72h-59v56h71l14 64h-61v56h73l17 82h57l-17 -82h55l17 82h57l-17 -82h60v-56zM208 510h-55l-14 -64h55z" />
<glyph unicode="$" horiz-adv-x="296" d="M266 147q0 -81 -21.5 -118t-78.5 -41v-52h-33v52q-59 4 -81 41t-22 118v109h62v-136q0 -63 41 -74v300q-26 27 -37.5 40.5t-30.5 39.5t-27 52t-8 55v86q0 80 30.5 116.5t72.5 42.5v52h33v-53q41 -6 70.5 -42t29.5 -116v-120h-62v147q0 59 -38 73v-316q24 -22 36.5 -35 t30 -35.5t25.5 -46.5t8 -52v-87zM133 438v282q-41 -13 -41 -74v-104q0 -56 41 -104zM204 120v103q0 39 -38 86v-262q38 13 38 73z" />
<glyph unicode="%" horiz-adv-x="606" d="M576 139q0 -85 -18.5 -117.5t-72.5 -32.5q-53 0 -72 33t-19 117v199q0 84 19 117t72 33q54 0 72.5 -32.5t18.5 -117.5v-199zM416 768l-166 -768h-57l166 768h57zM212 431q0 -85 -18.5 -117.5t-72.5 -32.5q-53 0 -72 33t-19 117v199q0 84 19 117t72 33q54 0 72.5 -32.5 t18.5 -117.5v-199zM521 115v247q0 43 -7.5 59.5t-28.5 16.5t-28.5 -16.5t-7.5 -59.5v-247q0 -43 7.5 -59.5t28.5 -16.5t28.5 16.5t7.5 59.5zM157 407v247q0 43 -7.5 59.5t-28.5 16.5t-28.5 -16.5t-7.5 -59.5v-247q0 -43 7.5 -59.5t28.5 -16.5t28.5 16.5t7.5 59.5z" />
<glyph unicode="&#x26;" horiz-adv-x="298" d="M297 369h-31v-232q0 -150 -118 -150t-118 150v128q0 55 17.5 88t66.5 48q-49 13 -66.5 42.5t-17.5 83.5v103q0 150 118 150t118 -150v-30h-62v57q0 66 -56 66t-56 -66v-168q0 -37 27.5 -51.5t58.5 -14.5h26v60h62v-60h31v-54zM204 110v259h-26q-31 0 -58.5 -14.5 t-27.5 -51.5v-193q0 -66 56 -66t56 66z" />
<glyph unicode="'" horiz-adv-x="100" d="M81 767l-15 -210h-30l-15 210h60z" />
<glyph unicode="(" horiz-adv-x="182" d="M182 -171h-61q-28 77 -41.5 122.5t-25.5 132.5t-12 197q0 85 17.5 223t61.5 264h61q-31 -83 -50.5 -192.5t-24 -174.5t-4.5 -111q0 -45 4 -106.5t23.5 -170.5t51.5 -184z" />
<glyph unicode=")" horiz-adv-x="182" d="M138 318q0 -210 -46 -384q-13 -49 -32 -104h-60q18 52 27 85q50 180 50 393q0 209 -47 373q-13 42 -31 88h61q14 -33 24 -66q54 -173 54 -385z" />
<glyph unicode="*" horiz-adv-x="295" d="M274 627h-84l42 -73l-43 -24l-41 69l-41 -70l-42 25l42 73h-86v49h83l-41 72l42 25l43 -74l41 73l43 -24l-41 -73h83v-48z" />
<glyph unicode="+" horiz-adv-x="312" d="M288 344h-103v-103h-56v103h-103v56h103v103h56v-103h103v-56z" />
<glyph unicode="," horiz-adv-x="126" d="M117 83l-127 -218h-36l88 218h75z" />
<glyph unicode="-" horiz-adv-x="249" d="M223 264h-199v56h199v-56z" />
<glyph unicode="." horiz-adv-x="137" d="M112 29q0 -18 -14 -28.5t-32 -10.5q-17 0 -30 13.5t-13 28.5q0 20 13.5 31.5t33.5 11.5t31 -13t11 -33z" />
<glyph unicode="/" horiz-adv-x="223" d="M223 768l-166 -768h-57l166 768h57z" />
<glyph unicode="0" horiz-adv-x="306" d="M271 147q0 -48 -11.5 -81.5t-31 -49.5t-37.5 -22.5t-38 -6.5q-19 0 -37.5 7t-38 23t-31 49.5t-11.5 80.5v472q0 47 11.5 80.5t31 49.5t38 23t37.5 7q43 0 80.5 -35.5t37.5 -124.5v-472zM209 120v526q0 39 -16 57.5t-40 18.5t-40 -18.5t-16 -57.5v-526q0 -39 16 -57.5 t40 -18.5t40 18.5t16 57.5z" />
<glyph unicode="1" horiz-adv-x="198" d="M158 0h-62v693l-91 -37v61l103 49h50v-766z" />
<glyph unicode="2" horiz-adv-x="281" d="M256 531q0 -46 -27 -112t-59.5 -123t-59 -123t-26.5 -111h154v-62h-218v86q0 48 27 113t60 118.5t60 116.5t27 108v104q0 39 -16 57.5t-40 18.5t-40 -18.5t-16 -57.5v-132h-62v105q0 80 32 120t86 40t86 -40.5t32 -119.5v-88z" />
<glyph unicode="3" horiz-adv-x="298" d="M266 137q0 -150 -118 -150t-118 150v108h62v-135q0 -66 56 -66t56 66v193q0 37 -27.5 51.5t-58.5 14.5q-7 0 -19 -2v58q6 -2 19 -2q31 0 58.5 14.5t27.5 51.5v168q0 66 -56 66t-56 -66v-139h-60q-2 20 -2 34v78q0 150 118 150t118 -150v-103q0 -54 -17.5 -83.5 t-66.5 -42.5q49 -15 66.5 -48t17.5 -88v-128z" />
<glyph unicode="4" horiz-adv-x="296" d="M286 212h-60v-212h-62v212h-154v62l131 492h85v-492h60v-62zM164 274v426l-90 -426h90z" />
<glyph unicode="5" horiz-adv-x="297" d="M267 147q0 -79 -32 -119.5t-86 -40.5t-86.5 40t-32.5 120v57h62v-84q0 -39 16.5 -57.5t40.5 -18.5t40 18.5t16 57.5v256q0 39 -16 57.5t-40 18.5q-17 0 -30.5 -18.5t-18.5 -36.5t-7 -35h-63v404h211v-62h-149v-267q2 3 9.5 15.5t12 17t13.5 12t22 10.5t30 3q88 0 88 -140 v-208z" />
<glyph unicode="6" horiz-adv-x="304" d="M272 147q0 -79 -32 -119.5t-86 -40.5t-86.5 40t-32.5 120v470q0 79 32 119.5t86 40.5t86 -40t32 -120v-57h-62v84q0 39 -16 57.5t-40 18.5t-40 -18.5t-16 -57.5v-217q12 19 20 28.5t26 19.5t41 10q88 0 88 -140v-198zM210 120v246q0 39 -16 57.5t-40 18.5q-22 0 -39 -22 t-17 -54l-1 -246q0 -39 16.5 -57.5t40.5 -18.5t40 18.5t16 57.5z" />
<glyph unicode="7" horiz-adv-x="290" d="M285 748l-212 -748h-68l205 704h-184v62h259v-18z" />
<glyph unicode="8" horiz-adv-x="300" d="M268 137q0 -150 -118 -150t-118 150v163q0 83 64 126q-29 12 -46.5 44.5t-17.5 81.5v78q0 150 118 150t118 -150v-78q0 -49 -17.5 -82t-46.5 -44q64 -43 64 -136v-153zM206 514v143q0 66 -56 66t-56 -66v-143q0 -66 56 -66t56 66zM206 110v218q0 66 -56 66t-56 -66v-218 q0 -66 56 -66t56 66z" />
<glyph unicode="9" horiz-adv-x="304" d="M269 147q0 -79 -32 -119.5t-86 -40.5t-86 40t-32 120v57h62v-84q0 -39 16 -57.5t40 -18.5t40 18.5t16 57.5v217q-12 -19 -20 -28.5t-26 -19.5t-41 -10q-88 0 -88 140v198q0 79 32 119.5t86 40.5t86.5 -40t32.5 -120v-470zM207 644q0 39 -16.5 57.5t-40.5 18.5t-40 -18.5 t-16 -57.5v-246q0 -39 16 -57.5t40 -18.5q22 0 39 22t17 54z" />
<glyph unicode=":" horiz-adv-x="137" d="M112 382q0 -18 -14 -28.5t-32 -10.5q-17 0 -30 13.5t-13 28.5q0 20 13.5 31.5t33.5 11.5t31 -13t11 -33zM112 29q0 -18 -14 -28.5t-32 -10.5q-17 0 -30 13.5t-13 28.5q0 20 13.5 31.5t33.5 11.5t31 -13t11 -33z" />
<glyph unicode=";" horiz-adv-x="137" d="M112 382q0 -18 -14 -28.5t-32 -10.5q-17 0 -30 13.5t-13 28.5q0 20 13.5 31.5t33.5 11.5t31 -13t11 -33zM117 83l-127 -218h-36l88 218h75z" />
<glyph unicode="&#x3c;" horiz-adv-x="169" d="M167 91h-64l-97 206l98 194h63l-97 -193z" />
<glyph unicode="=" horiz-adv-x="312" d="M288 374h-262v56h262v-56zM288 254h-262v56h262v-56z" />
<glyph unicode="&#x3e;" horiz-adv-x="169" d="M166 285l-98 -194h-63l97 193l-97 207h64z" />
<glyph unicode="?" horiz-adv-x="292" d="M258 527q0 -67 -23 -105t-82 -50v-222h-62v275q6 -2 19 -2q31 0 58.5 14.5t27.5 51.5v168q0 66 -56 66t-56 -66v-139h-62v112q0 150 118 150t118 -150v-103zM169 29q0 -18 -14 -28.5t-32 -10.5q-17 0 -30 13.5t-13 28.5q0 20 13.5 31.5t33.5 11.5t31 -13t11 -33z" />
<glyph unicode="@" horiz-adv-x="666" d="M645 355q0 -85 -22.5 -162.5t-72.5 -132t-117 -54.5q-73 0 -81 77q-14 -27 -42.5 -45.5t-52.5 -18.5q-26 0 -38 14t-12 46q0 33 12 90l36 170q18 89 35.5 121t55.5 32q23 0 36.5 -12.5t26.5 -36.5l8 40h60q-80 -378 -80 -384q0 -52 39 -52q46 0 82 51.5t52.5 120 t16.5 134.5q0 126 -56.5 209t-159.5 83q-92 0 -161 -71.5t-101 -175.5t-32 -218q0 -157 65.5 -240.5t172.5 -83.5q78 0 151 45l14 -52q-43 -26 -79 -37.5t-86 -11.5q-135 0 -214.5 101.5t-79.5 274.5q0 99 22.5 191.5t65 167.5t111 120.5t151.5 45.5q68 0 121.5 -29 t86 -78.5t49.5 -110t17 -128.5zM398 403q0 31 -27 31q-21 0 -32 -16.5t-20 -59.5l-44 -208q-6 -28 -6 -46q0 -30 26 -30q36 0 52 76l47 220q4 17 4 33z" />
<glyph unicode="A" horiz-adv-x="277" d="M277 0h-62l-22 190h-109l-22 -190h-62l103 766h70zM184 252l-42 397q0 19 -4 55q-3 -27 -3 -55l-42 -397h91z" />
<glyph unicode="B" horiz-adv-x="313" d="M281 160q0 -84 -32 -122t-104 -38h-105v766h95q72 0 104 -38t32 -122v-96q0 -98 -73 -116q41 -9 62 -43t21 -80v-111zM209 497v136q0 41 -13.5 58.5t-42.5 17.5h-51v-288h51q29 0 42.5 17.5t13.5 58.5zM219 133v157q0 76 -66 76h-51v-309h61q29 0 42.5 17.5t13.5 58.5z " />
<glyph unicode="C" horiz-adv-x="301" d="M271 147q0 -48 -11.5 -81.5t-31 -49.5t-37.5 -22.5t-38 -6.5q-19 0 -37.5 7t-38 23t-31 49.5t-11.5 80.5v472q0 47 11.5 80.5t31 49.5t38 23t37.5 7q20 0 38 -6.5t37.5 -22.5t31 -49.5t11.5 -81.5v-120h-62v147q0 39 -16 57.5t-40 18.5t-40 -18.5t-16 -57.5v-526 q0 -39 16 -57.5t40 -18.5t40 18.5t16 57.5v136h62v-109z" />
<glyph unicode="D" horiz-adv-x="306" d="M271 160q0 -97 -29.5 -128.5t-106.5 -31.5h-95v766h95q77 0 106.5 -31.5t29.5 -128.5v-446zM209 133v500q0 41 -13.5 58.5t-42.5 17.5h-51v-652h51q29 0 42.5 17.5t13.5 58.5z" />
<glyph unicode="E" d="M244 0h-204v766h204v-62h-142v-287h135v-62h-135v-293h142v-62z" />
<glyph unicode="F" horiz-adv-x="249" d="M244 704h-142v-287h135v-62h-135v-355h-62v766h204v-62z" />
<glyph unicode="G" horiz-adv-x="313" d="M281 64q-8 -16 -15 -26.5t-21 -24t-36 -20t-51 -6.5q-62 0 -92.5 33.5t-30.5 126.5v472q0 93 30.5 126.5t92.5 33.5q61 0 92 -33t31 -127v-119h-62v146q0 76 -61 76t-61 -76v-526q0 -76 61 -76q24 0 37 6t24 24v241h-68v62h130v-313z" />
<glyph unicode="H" horiz-adv-x="316" d="M276 0h-62v360h-112v-360h-62v766h62v-344h112v344h62v-766z" />
<glyph unicode="I" horiz-adv-x="142" d="M102 0h-62v766h62v-766z" />
<glyph unicode="J" horiz-adv-x="142" d="M102 -32q0 -48 -11.5 -81.5t-31 -49.5t-37.5 -22.5t-38 -6.5h-1v57h1q24 0 40 18.5t16 57.5v825h62v-798z" />
<glyph unicode="K" horiz-adv-x="301" d="M306 0h-62l-141 383l122 383h62l-116 -380zM102 0h-62v766h62v-766z" />
<glyph unicode="L" horiz-adv-x="209" d="M204 0h-164v766h62v-704h102v-62z" />
<glyph unicode="M" horiz-adv-x="440" d="M400 0h-62v600l7 55l-16 -53l-100 -602h-30l-88 602l-16 53l7 -55v-600h-62v766h95l80 -537l5 -69l5 70l80 536h95v-766z" />
<glyph unicode="N" horiz-adv-x="338" d="M298 0h-64l-123 522l-16 53l7 -55v-520h-62v766h59l129 -546l20 -56l-12 56v546h62v-766z" />
<glyph unicode="O" horiz-adv-x="306" d="M271 147q0 -48 -11.5 -81.5t-31 -49.5t-37.5 -22.5t-38 -6.5q-19 0 -37.5 7t-38 23t-31 49.5t-11.5 80.5v472q0 47 11.5 80.5t31 49.5t38 23t37.5 7q43 0 80.5 -35.5t37.5 -124.5v-472zM209 120v526q0 39 -16 57.5t-40 18.5t-40 -18.5t-16 -57.5v-526q0 -39 16 -57.5 t40 -18.5t40 18.5t16 57.5z" />
<glyph unicode="P" horiz-adv-x="291" d="M271 493q0 -97 -29.5 -128.5t-106.5 -31.5h-33v-333h-62v766h95q77 0 106.5 -31.5t29.5 -128.5v-113zM209 468v163q0 41 -13.5 58.5t-42.5 17.5h-51v-315h51q29 0 42.5 17.5t13.5 58.5z" />
<glyph unicode="Q" horiz-adv-x="306" d="M271 147q0 -101 -53 -142l52 -112l-25 -14t-21 -11l-53 119q-18 0 -32.5 2t-35 11.5t-34.5 25.5t-24 47t-10 74v472q0 47 11.5 80.5t31 49.5t38 23t37.5 7q20 0 38 -6.5t37.5 -22.5t31 -49.5t11.5 -81.5v-472zM209 120v526q0 39 -16 57.5t-40 18.5t-40 -18.5t-16 -57.5 v-526q0 -39 16 -57.5t40 -18.5t40 18.5t16 57.5z" />
<glyph unicode="R" horiz-adv-x="291" d="M291 0h-62l-90 335h-37v-335h-62v766h107q74 0 99 -30.5t25 -129.5v-113q0 -127 -74 -146zM209 468v165q0 41 -13.5 58.5t-42.5 17.5h-51v-317h51q29 0 42.5 17.5t13.5 58.5z" />
<glyph unicode="S" horiz-adv-x="296" d="M266 147q0 -86 -25 -123t-93 -37q-67 0 -92.5 37.5t-25.5 122.5v109h62v-136q0 -39 16 -57.5t40 -18.5t40 18.5t16 57.5v103q0 29 -18 58t-43.5 55.5l-51 54.5t-43.5 65t-18 77v86q0 47 11.5 80.5t31 49.5t38 23t37.5 7q20 0 38 -6.5t37.5 -22.5t31 -49.5t11.5 -81.5 v-120h-62v147q0 39 -16 57.5t-40 18.5t-40 -18.5t-16 -57.5v-104q0 -37 18 -69.5t43.5 -57l51 -49.5t43.5 -59t18 -73v-87z" />
<glyph unicode="T" horiz-adv-x="262" d="M257 704h-95v-704h-62v704h-95v62h252v-62z" />
<glyph unicode="U" horiz-adv-x="310" d="M273 147q0 -48 -11.5 -81.5t-31 -49.5t-37.5 -22.5t-38 -6.5q-19 0 -37.5 7t-38 23t-31 49.5t-11.5 80.5v619h62v-642q0 -39 16 -57.5t40 -18.5t40 18.5t16 57.5v642h62v-619z" />
<glyph unicode="V" horiz-adv-x="257" d="M257 766l-93 -766h-70l-94 766h62l64 -639q0 -28 3 -55q3 27 3 55l63 639h62z" />
<glyph unicode="W" horiz-adv-x="434" d="M434 766l-83 -766h-70l-60 576q-1 14 -2 36t-2 35q-1 -13 -2 -35t-2 -36l-59 -576h-70l-84 766h62l54 -615q0 -28 3 -55q3 27 3 55l63 615h64l63 -611q0 -17 4 -49q2 15 4 49l52 611h62z" />
<glyph unicode="X" horiz-adv-x="302" d="M302 0h-62l-84 307l-94 -307h-62l134 394l-128 372h63l87 -281l81 281h63l-114 -373z" />
<glyph unicode="Y" horiz-adv-x="278" d="M278 768l-117 -481v-287h-60v286l-101 481h63l71 -343l81 344h63z" />
<glyph unicode="Z" horiz-adv-x="256" d="M246 0h-236v62l161 642h-152v62h227v-18l-172 -686h172v-62z" />
<glyph unicode="[" horiz-adv-x="182" d="M183 -170h-136v938h136v-52h-78v-831h78v-55z" />
<glyph unicode="\" horiz-adv-x="252" d="M249 -20h-58l-248 788h57z" />
<glyph unicode="]" horiz-adv-x="182" d="M135 -169h-136v55h76v830h-76v52h136v-937z" />
<glyph unicode="^" horiz-adv-x="329" d="M339 717h-30q-21 0 -28.5 -16.5t-7.5 -59.5v-75h65v-54h-65v-512h-60v512h-98v-512h-60v512h-55v54h55v56q0 150 86 150q18 0 40 -5v-50h-30q-21 0 -28.5 -16.5t-7.5 -59.5v-75h98v56q0 150 86 150q18 0 40 -5v-50z" />
<glyph unicode="_" horiz-adv-x="223" d="M223 -28h-223v56h223v-56z" />
<glyph unicode="`" horiz-adv-x="98" d="M107 642h-54l-63 101h71z" />
<glyph unicode="a" horiz-adv-x="254" d="M222 0h-47l-13 46q-8 -20 -24 -36.5t-39 -16.5q-39 0 -54 33t-15 117v39q0 142 87 142h45v116q0 43 -7.5 59.5t-28.5 16.5t-28.5 -16.5t-7.5 -59.5v-54h-60v35q0 84 21 117t75 33t75 -33.5t21 -116.5v-421zM162 124v153h-36q-36 0 -36 -96v-57q0 -43 7.5 -59.5 t28.5 -16.5q36 0 36 76z" />
<glyph unicode="b" horiz-adv-x="262" d="M232 143q0 -84 -15 -117t-54 -33q-23 0 -39 16.5t-24 36.5l-13 -46h-47v767h60v-240q37 49 73 49q38 0 48.5 -32t10.5 -121v-280zM172 124v318q0 43 -7.5 59.5t-28.5 16.5q-36 0 -36 -64v-330q0 -76 36 -76q21 0 28.5 16.5t7.5 59.5z" />
<glyph unicode="c" horiz-adv-x="247" d="M222 141q0 -84 -21 -117t-75 -33t-75 33.5t-21 116.5v288q0 83 21 116.5t75 33.5t75 -33t21 -117v-70h-60v89q0 43 -7.5 59.5t-28.5 16.5t-28.5 -16.5t-7.5 -59.5v-326q0 -43 7.5 -59.5t28.5 -16.5t28.5 16.5t7.5 59.5v100h60v-81z" />
<glyph unicode="d" horiz-adv-x="262" d="M222 0h-47l-13 46q-8 -20 -24 -36.5t-39 -16.5q-39 0 -54 33t-15 117v280q0 89 10.5 121t48.5 32q36 0 73 -49v240h60v-767zM162 124v330q0 64 -36 64q-21 0 -28.5 -16.5t-7.5 -59.5v-318q0 -43 7.5 -59.5t28.5 -16.5q36 0 36 76z" />
<glyph unicode="e" horiz-adv-x="247" d="M222 141q0 -84 -21 -117t-75 -33t-75 33.5t-21 116.5v280q0 83 21 116.5t75 33.5t75 -33t21 -117v-160h-132v-139q0 -43 7.5 -59.5t28.5 -16.5t28.5 16.5t7.5 59.5v65h60v-46zM162 315v125q0 43 -7.5 59.5t-28.5 16.5t-28.5 -16.5t-7.5 -59.5v-125h72z" />
<glyph unicode="f" horiz-adv-x="171" d="M181 717h-30q-21 0 -28.5 -16.5t-7.5 -59.5v-75h65v-54h-65v-512h-60v512h-55v54h55v56q0 150 86 150q18 0 40 -5v-50z" />
<glyph unicode="g" horiz-adv-x="250" d="M250 521h-52q24 -37 24 -100v-60q0 -81 -30 -115.5t-90 -34.5q-15 0 -15 -35q0 -8 12 -18.5t26 -10.5q55 0 76 -33t21 -116v-50q0 -82 -25 -116t-81 -34q-54 0 -75 33.5t-21 116.5v70q0 25 4.5 43.5t10 28t16.5 25.5q-13 26 -13 47q0 36 31 74q-39 34 -39 125v60 q0 83 21 116.5t75 33.5q8 0 14 -1t8 -2t8 -4.5t10 -5.5h84v-37zM162 342v98q0 43 -7.5 59.5t-28.5 16.5t-28.5 -16.5t-7.5 -59.5v-98q0 -43 7.5 -59.5t28.5 -16.5t28.5 16.5t7.5 59.5zM162 -71v88q0 45 -8.5 65.5t-32.5 20.5q-25 0 -33 -12.5t-8 -53.5v-108q0 -41 10 -58.5 t31 -17.5t31 17.5t10 58.5z" />
<glyph unicode="h" horiz-adv-x="264" d="M232 0h-60v442q0 43 -7.5 59.5t-28.5 16.5q-36 0 -36 -64v-454h-60v767h60v-240q30 49 54 49q40 0 59 -35.5t19 -117.5v-423z" />
<glyph unicode="i" horiz-adv-x="130" d="M113 686q0 -20 -13.5 -31.5t-33.5 -11.5t-31 13t-11 33q0 18 14 28.5t32 10.5q17 0 30 -13.5t13 -28.5zM95 0h-60v567h60v-567z" />
<glyph unicode="j" horiz-adv-x="130" d="M112 686q0 -20 -13.5 -31.5t-33.5 -11.5t-31 13t-11 33q0 18 14 28.5t32 10.5q17 0 30 -13.5t13 -28.5zM95 -34q0 -100 -20 -165h-60q20 66 20 169v597h60v-601z" />
<glyph unicode="k" horiz-adv-x="267" d="M265 567l-98 -274l97 -293h-61l-102 290l102 277h62zM100 0h-60v766h60v-766z" />
<glyph unicode="l" horiz-adv-x="140" d="M100 0h-60v767h60v-767z" />
<glyph unicode="m" horiz-adv-x="391" d="M359 0h-60v443q0 43 -7.5 59.5t-28.5 16.5q-36 0 -36 -76v-443h-60v453q0 41 -7 53.5t-29 12.5q-36 0 -36 -76v-443h-60v567h47l13 -46q2 3 6.5 10.5t6.5 10.5l6 9t7 8t7.5 6t8.5 5.5t9.5 2.5t11.5 1q48 0 62 -65q21 65 70 65q39 0 54 -33t15 -117v-424z" />
<glyph unicode="n" d="M227 2h-60v440q0 43 -7.5 59.5t-28.5 16.5q-36 0 -36 -64v-452h-60v565h50l10 -40q30 49 54 49q40 0 59 -35.5t19 -117.5v-421z" />
<glyph unicode="o" horiz-adv-x="252" d="M222 141q0 -84 -21 -117t-75 -33t-75 33.5t-21 116.5v280q0 83 21 116.5t75 33.5t75 -33t21 -117v-280zM162 122v318q0 43 -7.5 59.5t-28.5 16.5t-28.5 -16.5t-7.5 -59.5v-318q0 -43 7.5 -59.5t28.5 -16.5t28.5 16.5t7.5 59.5z" />
<glyph unicode="p" horiz-adv-x="257" d="M227 145q0 -89 -10.5 -121t-48.5 -32q-36 0 -73 49v-240h-60v767h47l13 -46q8 20 24 36.5t39 16.5q39 0 54 -33t15 -117v-280zM167 126v318q0 43 -7.5 59.5t-28.5 16.5q-36 0 -36 -76v-330q0 -64 36 -64q21 0 28.5 16.5t7.5 59.5z" />
<glyph unicode="q" horiz-adv-x="257" d="M222 -199h-60v240q-37 -49 -73 -49q-38 0 -48.5 32t-10.5 121v280q0 84 15 117t54 33q23 0 39 -16.5t24 -36.5l13 46h47v-767zM162 114v330q0 76 -36 76q-21 0 -28.5 -16.5t-7.5 -59.5v-318q0 -43 7.5 -59.5t28.5 -16.5q36 0 36 64z" />
<glyph unicode="r" horiz-adv-x="201" d="M194 562l-3 -66q-31 7 -48 7q-24 0 -36 -17t-12 -63v-423h-60v567h47l13 -46q8 20 24 36.5t39 16.5q9 0 18 -3q10 -3 14 -6z" />
<glyph unicode="s" horiz-adv-x="242" d="M222 152q0 -85 -21 -122.5t-75 -37.5q-60 0 -83 37.5t-23 122.5v35h60v-64q0 -43 9 -59.5t37 -16.5q21 0 28.5 19.5t7.5 76.5q0 28 -14.5 54t-35.5 48l-42 46t-35.5 57t-14.5 70q0 85 23 122.5t83 37.5q54 0 75 -37.5t21 -122.5v-40h-60v69q0 43 -7.5 59.5t-28.5 16.5 q-28 0 -37 -19t-9 -75q0 -36 14.5 -65.5t35.5 -50.5l42 -42t35.5 -51t14.5 -68z" />
<glyph unicode="t" horiz-adv-x="176" d="M171 -3q-22 -5 -40 -5q-53 0 -69.5 32t-16.5 118v370h-45v55h45v140h60v-140h65v-55h-65v-389q0 -43 7.5 -59.5t28.5 -16.5h30v-50z" />
<glyph unicode="u" d="M224 1h-50l-10 40q-30 -49 -54 -49q-40 0 -59 35.5t-19 117.5v422h60v-441q0 -43 7.5 -59.5t28.5 -16.5q36 0 36 64v453h60v-566z" />
<glyph unicode="v" horiz-adv-x="219" d="M219 567l-76 -567h-66l-77 567h64l42 -432q0 -28 3 -55q3 27 3 55l43 432h64z" />
<glyph unicode="w" horiz-adv-x="377" d="M377 567l-76 -567h-64l-44 374q-1 10 -2.5 31t-2.5 32q0 -7 -2 -29.5t-2 -34.5l-43 -373h-64l-77 567h64l42 -432q0 -28 3 -55q3 27 3 55l43 432h67l42 -432q0 -28 3 -55q3 27 3 55l43 432h64z" />
<glyph unicode="x" horiz-adv-x="231" d="M231 0h-59l-61 199l-53 -199h-58l89 290l-88 277h59l55 -182l53 182h61l-92 -278z" />
<glyph unicode="y" horiz-adv-x="229" d="M229 567l-116 -767h-64l28 176l-77 591h64l48 -432q0 -19 2 -51l2 6q2 30 2 45l47 432h64z" />
<glyph unicode="z" horiz-adv-x="230" d="M222 529l-144 -469h132v-60h-202v53l141 454h-122v60h195v-38z" />
<glyph unicode="{" horiz-adv-x="308" d="M291 686q0 -20 -13.5 -31.5t-33.5 -11.5t-31 13t-11 33q0 18 14 28.5t32 10.5q17 0 30 -13.5t13 -28.5zM273 0h-60v567h60v-567zM181 717h-30q-21 0 -28.5 -16.5t-7.5 -59.5v-75h65v-54h-65v-512h-60v512h-55v54h55v56q0 150 86 150q18 0 40 -5v-50z" />
<glyph unicode="|" horiz-adv-x="142" d="M102 -200h-62v966h62v-966z" />
<glyph unicode="}" horiz-adv-x="314" d="M274 0h-60v767h60v-767zM181 717h-30q-21 0 -28.5 -16.5t-7.5 -59.5v-75h65v-54h-65v-512h-60v512h-55v54h55v56q0 150 86 150q18 0 40 -5v-50z" />
<glyph unicode="~" horiz-adv-x="466" d="M449 686q0 -20 -13.5 -31.5t-33.5 -11.5t-31 13t-11 33q0 18 14 28.5t32 10.5q17 0 30 -13.5t13 -28.5zM431 0h-60v567h60v-567zM339 717h-30q-21 0 -28.5 -16.5t-7.5 -59.5v-75h65v-54h-65v-512h-60v512h-98v-512h-60v512h-55v54h55v56q0 150 86 150q18 0 40 -5v-50h-30 q-21 0 -28.5 -16.5t-7.5 -59.5v-75h98v56q0 150 86 150q18 0 40 -5v-50z" />
<glyph unicode="&#xa1;" horiz-adv-x="127" d="M109 536q0 -20 -13.5 -31.5t-33.5 -11.5t-31 13t-11 33q0 18 14 28.5t32 10.5q17 0 30 -13.5t13 -28.5zM96 -199h-69l15 616h40z" />
<glyph unicode="&#xa2;" horiz-adv-x="247" d="M222 248q0 -72 -15 -106t-52 -42v-100h-60v101q-36 9 -50.5 43t-14.5 104v288q0 70 14.5 104t50.5 42v85h60v-84q37 -7 52 -41t15 -106v-70h-60v89q0 43 -7.5 59.5t-28.5 16.5t-28.5 -16.5t-7.5 -59.5v-326q0 -43 7.5 -59.5t28.5 -16.5t28.5 16.5t7.5 59.5v100h60v-81z " />
<glyph unicode="&#xa3;" horiz-adv-x="331" d="M297 568h-62v78q0 39 -16 57.5t-40 18.5t-40 -18.5t-16 -57.5v-216h165v-56h-165v-64h165v-56h-165v-192h172v-62h-269v62h35v192h-35v56h35v64h-35v56h35v189q0 47 11.5 80.5t31 49.5t38 23t37.5 7q20 0 38 -6.5t37.5 -22.5t31 -49.5t11.5 -81.5v-51z" />
<glyph unicode="&#xa4;" horiz-adv-x="318" d="M288 147q0 -48 -11.5 -81.5t-31 -49.5t-37.5 -22.5t-38 -6.5q-19 0 -37.5 7t-38 23t-31 49.5t-11.5 80.5v147h-38v56h38v64h-39v56h39v149q0 47 11.5 80.5t31 49.5t38 23t37.5 7q20 0 38 -6.5t37.5 -22.5t31 -49.5t11.5 -81.5v-50h-62v77q0 39 -16 57.5t-40 18.5 t-40 -18.5t-16 -57.5v-176h161v-56h-161v-64h162v-56h-162v-174q0 -39 16 -57.5t40 -18.5t40 18.5t16 57.5v66h62v-39z" />
<glyph unicode="&#xa5;" horiz-adv-x="278" d="M278 768l-109 -448h99v-56h-107v-64h107v-56h-107v-144h-60v144h-95v56h95v64h-95v56h88l-94 447h63l71 -343l81 344h63z" />
<glyph unicode="&#xa6;" horiz-adv-x="142" d="M102 373h-62v393h62v-393zM102 -200h-62v374h62v-374z" />
<glyph unicode="&#xa7;" horiz-adv-x="344" d="M339 -3q-22 -5 -40 -5q-53 0 -69.5 32t-16.5 118v370h-98v-512h-60v512h-55v54h55v56q0 150 86 150q18 0 40 -5v-50h-30q-21 0 -28.5 -16.5t-7.5 -59.5v-75h98v141h60v-141h65v-54h-65v-389q0 -43 7.5 -59.5t28.5 -16.5h30v-50z" />
<glyph unicode="&#xa8;" horiz-adv-x="255" d="M236 671q0 -18 -14 -28.5t-32 -10.5q-17 0 -30 13.5t-13 28.5q0 20 13.5 31.5t33.5 11.5t31 -13t11 -33zM106 671q0 -18 -14 -28.5t-32 -10.5q-17 0 -30 13.5t-13 28.5q0 20 13.5 31.5t33.5 11.5t31 -13t11 -33z" />
<glyph unicode="&#xa9;" horiz-adv-x="661" d="M631 381q0 -164 -88 -280t-212 -116t-212 116t-88 280t88 280.5t212 116.5t212 -116.5t88 -280.5zM580 382q0 141 -72.5 244t-177.5 103t-177.5 -103t-72.5 -244t72.5 -244t177.5 -103t177.5 103t72.5 244zM425 254q0 -84 -21 -117t-75 -33t-75 33.5t-21 116.5v248 q0 83 21 116.5t75 33.5t75 -33t21 -117v-70h-60v89q0 43 -7.5 59.5t-28.5 16.5t-28.5 -16.5t-7.5 -59.5v-286q0 -43 7.5 -59.5t28.5 -16.5t28.5 16.5t7.5 59.5v100h60v-81z" />
<glyph unicode="&#xaa;" horiz-adv-x="257" d="M222 0h-47l-13 46q-8 -20 -24 -36.5t-39 -16.5q-39 0 -54 33t-15 117v280q0 89 10.5 121t48.5 32q36 0 73 -49v40h60v-567zM162 124v330q0 64 -36 64q-21 0 -28.5 -16.5t-7.5 -59.5v-318q0 -43 7.5 -59.5t28.5 -16.5q36 0 36 76z" />
<glyph unicode="&#xab;" horiz-adv-x="280" d="M259 457l-74 -169l73 -167h-59l-75 167l74 169h61zM149 121h-62l-73 167l73 169h62l-74 -169z" />
<glyph unicode="&#xac;" horiz-adv-x="313" d="M281 64q-8 -16 -15 -26.5t-21 -24t-36 -20t-51 -6.5q-62 0 -92.5 33.5t-30.5 126.5v472q0 93 30.5 126.5t92.5 33.5q61 0 92 -33t31 -127v-119h-62v146q0 76 -61 76t-61 -76v-526q0 -76 61 -76q24 0 37 6t24 24v281h-68v62h130v-353z" />
<glyph unicode="&#xad;" horiz-adv-x="249" d="M223 264h-199v56h199v-56z" />
<glyph unicode="&#xae;" horiz-adv-x="661" d="M631 381q0 -164 -88 -280t-212 -116t-212 116t-88 280t88 280.5t212 116.5t212 -116.5t88 -280.5zM400 466v52q0 41 -13.5 58.5t-42.5 17.5h-51v-204h51q29 0 42.5 17.5t13.5 58.5zM580 382q0 141 -72.5 244t-177.5 103t-177.5 -103t-72.5 -244t72.5 -244t177.5 -103 q69 0 127 49h-60l-67 249h-37v-249h-62v567h107q74 0 99 -30.5t25 -129.5q0 -127 -74 -146l70 -260q56 46 89 125.5t33 171.5z" />
<glyph unicode="&#xaf;" horiz-adv-x="466" d="M431 0h-60v767h60v-767zM339 717h-30q-21 0 -28.5 -16.5t-7.5 -59.5v-75h65v-54h-65v-512h-60v512h-98v-512h-60v512h-55v54h55v56q0 150 86 150q18 0 40 -5v-50h-30q-21 0 -28.5 -16.5t-7.5 -59.5v-75h98v56q0 150 86 150q18 0 40 -5v-50z" />
<glyph unicode="&#xb0;" horiz-adv-x="576" d="M546 363q0 -84 -21 -117t-75 -33t-75 33.5t-21 116.5v170q0 83 21 116.5t75 33.5t75 -33t21 -117v-170zM537 84h-170v56h170v-56zM298 0h-64l-123 522l-16 53l7 -55v-520h-62v766h59l129 -546l20 -56l-12 56v546h62v-766zM486 344v208q0 43 -7.5 59.5t-28.5 16.5 t-28.5 -16.5t-7.5 -59.5v-208q0 -43 7.5 -59.5t28.5 -16.5t28.5 16.5t7.5 59.5z" />
<glyph unicode="&#xb1;" horiz-adv-x="312" d="M288 404h-103v-103h-56v103h-103v56h103v103h56v-103h103v-56zM286 187h-262v56h262v-56z" />
<glyph unicode="&#xb2;" horiz-adv-x="281" d="M256 531q0 -46 -27 -112t-59.5 -123t-59 -123t-26.5 -111h154v-62h-218v86q0 48 27 113t60 118.5t60 116.5t27 108v104q0 39 -16 57.5t-40 18.5t-40 -18.5t-16 -57.5v-132h-62v105q0 80 32 120t86 40t86 -40.5t32 -119.5v-88z" />
<glyph unicode="&#xb3;" horiz-adv-x="298" d="M266 137q0 -150 -118 -150t-118 150v108h62v-135q0 -66 56 -66t56 66v193q0 37 -27.5 51.5t-58.5 14.5q-7 0 -19 -2v58q6 -2 19 -2q31 0 58.5 14.5t27.5 51.5v168q0 66 -56 66t-56 -66v-139h-60q-2 20 -2 34v78q0 150 118 150t118 -150v-103q0 -54 -17.5 -83.5 t-66.5 -42.5q49 -15 66.5 -48t17.5 -88v-128z" />
<glyph unicode="&#xb4;" horiz-adv-x="98" d="M115 743l-62 -101h-53l44 101h71z" />
<glyph unicode="&#xb5;" horiz-adv-x="686" d="M626 606h-40v88h39v-18h-16v-16h15v-17h-15v-20h17v-17zM580 662q0 -12 -4.5 -16t-16.5 -4h-6v-36h-23v88h23q18 0 22.5 -4.5t4.5 -20.5v-7zM526 694l-16 -57v-31h-21v31l-16 57h20q4 -24 6 -33q1 5 3 16t3 17h21zM472 676h-13v-70h-23v70h-14v18h50v-18zM403 606h-24 l-1 16h-8l-2 -16h-23l11 88h33zM341 632q0 -18 -4.5 -22t-19.5 -4h-29v88h17q25 0 30.5 -4.5t5.5 -26.5v-31zM285 606h-24l-1 16h-9l-1 -16h-23l11 88h33zM223 606h-20l-12 40v-40h-19v88h18l13 -40v40h20v-88zM168 606h-24l-1 16h-8l-2 -16h-23l11 88h33zM107 638 q0 -34 -27 -34q-15 0 -21 7.5t-6 25.5v26q0 33 26 33q28 0 28 -32v-8h-23v15q0 10 -4 10t-4 -11v-41q0 -10 4 -10t4 11v12h23v-4zM629 0h-578v578h578v-578zM561 664v8q0 7 -8 7v-23h2q6 0 6 8zM377 637q-1 14 -3 38q-4 -23 -4 -38h7zM318 633v35q0 8 -1 9.5t-6 1.5v-58 q5 0 6 1.5t1 10.5zM259 637q-1 14 -3 38q-1 -5 -5 -38h8zM142 637q-1 11 -3 36q-4 -32 -4 -36h7zM544 285h-11q-9 9 -12 11l23 68l-56 -12q-4 2 -11 12l-11 22l-45 -45l-11 -11q-9 4 -11 11l33 112l-33 -11q-12 -6 -12 -10v-1q-7 4 -11 11l-33 67l-34 -67q-2 -4 -11 -11 q0 5 -11 11l-23 11l23 -112l-12 -11l-5 4q-4 4 -6 7l-45 45l-11 -22q-8 -10 -11 -12l-56 12l22 -68q-5 -4 -11 -11h-22l101 -78q7 -5 11 -23q-4 -13 -23 -33l101 22q13 -6 13 -9q0 -1 -1 -2v-101h22v101q-1 1 -1 3q0 3 12 8l101 -22q-7 8 -12 15.5t-7.5 12t-3.5 5.5 q3 15 11 23z" />
<glyph unicode="&#x3bc;" horiz-adv-x="686" d="M626 606h-40v88h39v-18h-16v-16h15v-17h-15v-20h17v-17zM580 662q0 -12 -4.5 -16t-16.5 -4h-6v-36h-23v88h23q18 0 22.5 -4.5t4.5 -20.5v-7zM526 694l-16 -57v-31h-21v31l-16 57h20q4 -24 6 -33q1 5 3 16t3 17h21zM472 676h-13v-70h-23v70h-14v18h50v-18zM403 606h-24 l-1 16h-8l-2 -16h-23l11 88h33zM341 632q0 -18 -4.5 -22t-19.5 -4h-29v88h17q25 0 30.5 -4.5t5.5 -26.5v-31zM285 606h-24l-1 16h-9l-1 -16h-23l11 88h33zM223 606h-20l-12 40v-40h-19v88h18l13 -40v40h20v-88zM168 606h-24l-1 16h-8l-2 -16h-23l11 88h33zM107 638 q0 -34 -27 -34q-15 0 -21 7.5t-6 25.5v26q0 33 26 33q28 0 28 -32v-8h-23v15q0 10 -4 10t-4 -11v-41q0 -10 4 -10t4 11v12h23v-4zM629 0h-578v578h578v-578zM561 664v8q0 7 -8 7v-23h2q6 0 6 8zM377 637q-1 14 -3 38q-4 -23 -4 -38h7zM318 633v35q0 8 -1 9.5t-6 1.5v-58 q5 0 6 1.5t1 10.5zM259 637q-1 14 -3 38q-1 -5 -5 -38h8zM142 637q-1 11 -3 36q-4 -32 -4 -36h7zM544 285h-11q-9 9 -12 11l23 68l-56 -12q-4 2 -11 12l-11 22l-45 -45l-11 -11q-9 4 -11 11l33 112l-33 -11q-12 -6 -12 -10v-1q-7 4 -11 11l-33 67l-34 -67q-2 -4 -11 -11 q0 5 -11 11l-23 11l23 -112l-12 -11l-5 4q-4 4 -6 7l-45 45l-11 -22q-8 -10 -11 -12l-56 12l22 -68q-5 -4 -11 -11h-22l101 -78q7 -5 11 -23q-4 -13 -23 -33l101 22q13 -6 13 -9q0 -1 -1 -2v-101h22v101q-1 1 -1 3q0 3 12 8l101 -22q-7 8 -12 15.5t-7.5 12t-3.5 5.5 q3 15 11 23z" />
<glyph unicode="&#xb6;" horiz-adv-x="390" d="M350 -87h-62v794h-49v-795h-62v334h-12q-77 0 -106.5 31.5t-29.5 128.5v200q0 97 29.5 128.5t106.5 31.5h185v-853z" />
<glyph unicode="&#xb7;" horiz-adv-x="345" d="M340 -3q-22 -5 -40 -5q-53 0 -69.5 32t-16.5 118v372h-109v-391q0 -43 7.5 -59.5t28.5 -16.5h30v-50q-22 -5 -40 -5q-53 0 -69.5 32t-16.5 118v372h-45v54h45v139h60v-139h109v139h60v-139h65v-54h-65v-391q0 -43 7.5 -59.5t28.5 -16.5h30v-50z" />
<glyph unicode="&#xb8;" horiz-adv-x="163" d="M124 22l-61 -105h-27l42 105h46z" />
<glyph unicode="&#xb9;" horiz-adv-x="198" d="M158 0h-62v693l-91 -37v61l103 49h50v-766z" />
<glyph unicode="&#xba;" horiz-adv-x="252" d="M222 401q0 -84 -21 -117t-75 -33t-75 33.5t-21 116.5v170q0 83 21 116.5t75 33.5t75 -33t21 -117v-170zM213 122h-170v56h170v-56zM162 382v208q0 43 -7.5 59.5t-28.5 16.5t-28.5 -16.5t-7.5 -59.5v-208q0 -43 7.5 -59.5t28.5 -16.5t28.5 16.5t7.5 59.5z" />
<glyph unicode="&#xbb;" horiz-adv-x="281" d="M265 288l-73 -167h-62l74 167l-74 169h62zM155 288l-75 -167h-59l73 167l-74 169h61z" />
<glyph unicode="&#xbf;" horiz-adv-x="280" d="M205 538q0 -20 -13.5 -31.5t-33.5 -11.5t-31 13t-11 33q0 18 14 28.5t32 10.5q17 0 30 -13.5t13 -28.5zM263 -60q0 -150 -118 -150t-118 150v103q0 67 23 105t82 50v222h62v-275q-6 2 -19 2q-31 0 -58.5 -14.5t-27.5 -51.5v-168q0 -66 56 -66t56 66v139h62v-112z" />
<glyph unicode="&#xc0;" horiz-adv-x="277" d="M174 841h-54l-63 101h71zM277 0h-62l-22 190h-109l-22 -190h-62l103 766h70zM184 252l-42 397q0 19 -4 55q-3 -27 -3 -55l-42 -397h91z" />
<glyph unicode="&#xc1;" horiz-adv-x="277" d="M230 942l-62 -101h-53l44 101h71zM277 0h-62l-22 190h-109l-22 -190h-62l103 766h70zM184 252l-42 397q0 19 -4 55q-3 -27 -3 -55l-42 -397h91z" />
<glyph unicode="&#xc2;" horiz-adv-x="277" d="M230 841h-53l-39 62l-36 -62h-56l55 101h70zM277 0h-62l-22 190h-109l-22 -190h-62l103 766h70zM184 252l-42 397q0 19 -4 55q-3 -27 -3 -55l-42 -397h91z" />
<glyph unicode="&#xc3;" horiz-adv-x="277" d="M236 903q-4 -29 -21.5 -46t-43.5 -17q-11 0 -30 8.5t-29 8.5q-12 0 -16 -16h-56q10 63 62 63q12 0 33 -7.5t30 -7.5q13 0 13 15zM277 0h-62l-22 190h-109l-22 -190h-62l103 766h70zM184 252l-42 397q0 19 -4 55q-3 -27 -3 -55l-42 -397h91z" />
<glyph unicode="&#xc4;" horiz-adv-x="277" d="M248 870q0 -18 -14 -28.5t-32 -10.5q-17 0 -30 13.5t-13 28.5q0 20 13.5 31.5t33.5 11.5t31 -13t11 -33zM118 870q0 -18 -14 -28.5t-32 -10.5q-17 0 -30 13.5t-13 28.5q0 20 13.5 31.5t33.5 11.5t31 -13t11 -33zM277 0h-62l-22 190h-109l-22 -190h-62l103 766h70z M184 252l-42 397q0 19 -4 55q-3 -27 -3 -55l-42 -397h91z" />
<glyph unicode="&#xc5;" horiz-adv-x="277" d="M203 881q0 -27 -19.5 -46t-45.5 -19q-25 0 -44.5 17t-19.5 49q0 27 19.5 45.5t46.5 18.5q26 0 44.5 -19.5t18.5 -45.5zM277 0h-62l-22 190h-109l-22 -190h-62l103 766h70zM175 882q0 14 -11 25t-26 11q-15 -1 -25 -12t-10 -25q0 -17 11 -26.5t26 -9.5q14 0 25 11t10 26z M184 252l-42 397q0 19 -4 55q-3 -27 -3 -55l-42 -397h91z" />
<glyph unicode="&#xc6;" horiz-adv-x="436" d="M421 0h-207l3 190h-109l-47 -190h-61l205 766h216v-62h-142v-287h135v-62h-135v-293h142v-62zM217 252v410l-92 -410h92z" />
<glyph unicode="&#xc7;" horiz-adv-x="301" d="M271 147q0 -74 -25.5 -110.5t-62.5 -45.5l-55 -95h-27l37 92q-42 6 -72.5 42t-30.5 117v472q0 47 11.5 80.5t31 49.5t38 23t37.5 7q20 0 38 -6.5t37.5 -22.5t31 -49.5t11.5 -81.5v-120h-62v147q0 39 -16 57.5t-40 18.5t-40 -18.5t-16 -57.5v-526q0 -39 16 -57.5t40 -18.5 t40 18.5t16 57.5v136h62v-109z" />
<glyph unicode="&#xc8;" d="M188 841h-54l-63 101h71zM244 0h-204v766h204v-62h-142v-287h135v-62h-135v-293h142v-62z" />
<glyph unicode="&#xc9;" d="M237 942l-62 -101h-53l44 101h71zM244 0h-204v766h204v-62h-142v-287h135v-62h-135v-293h142v-62z" />
<glyph unicode="&#xca;" d="M237 841h-53l-39 62l-36 -62h-56l55 101h70zM244 0h-204v766h204v-62h-142v-287h135v-62h-135v-293h142v-62z" />
<glyph unicode="&#xcb;" d="M261 870q0 -18 -14 -28.5t-32 -10.5q-17 0 -30 13.5t-13 28.5q0 20 13.5 31.5t33.5 11.5t31 -13t11 -33zM131 870q0 -18 -14 -28.5t-32 -10.5q-17 0 -30 13.5t-13 28.5q0 20 13.5 31.5t33.5 11.5t31 -13t11 -33zM244 0h-204v766h204v-62h-142v-287h135v-62h-135v-293h142 v-62z" />
<glyph unicode="&#xcc;" horiz-adv-x="142" d="M100 841h-54l-63 101h71zM102 0h-62v766h62v-766z" />
<glyph unicode="&#xcd;" horiz-adv-x="142" d="M158 942l-62 -101h-53l44 101h71zM102 0h-62v766h62v-766z" />
<glyph unicode="&#xce;" horiz-adv-x="142" d="M163 841h-53l-39 62l-36 -62h-56l55 101h70zM102 0h-62v766h62v-766z" />
<glyph unicode="&#xcf;" horiz-adv-x="142" d="M181 870q0 -18 -14 -28.5t-32 -10.5q-17 0 -30 13.5t-13 28.5q0 20 13.5 31.5t33.5 11.5t31 -13t11 -33zM51 870q0 -18 -14 -28.5t-32 -10.5q-17 0 -30 13.5t-13 28.5q0 20 13.5 31.5t33.5 11.5t31 -13t11 -33zM102 0h-62v766h62v-766z" />
<glyph unicode="&#xd0;" horiz-adv-x="307" d="M272 160q0 -97 -29.5 -128.5t-106.5 -31.5h-95v382h-34v56h34v328h95q77 0 106.5 -31.5t29.5 -128.5v-446zM210 133v500q0 41 -13.5 58.5t-42.5 17.5h-51v-271h59v-56h-59v-325h51q29 0 42.5 17.5t13.5 58.5z" />
<glyph unicode="&#xd1;" horiz-adv-x="338" d="M262 903q-4 -29 -21.5 -46t-43.5 -17q-11 0 -30 8.5t-29 8.5q-12 0 -16 -16h-56q10 63 62 63q12 0 33 -7.5t30 -7.5q13 0 13 15zM298 0h-64l-123 522l-16 53l7 -55v-520h-62v766h59l129 -546l20 -56l-12 56v546h62v-766z" />
<glyph unicode="&#xd2;" horiz-adv-x="306" d="M186 841h-54l-63 101h71zM271 147q0 -48 -11.5 -81.5t-31 -49.5t-37.5 -22.5t-38 -6.5q-19 0 -37.5 7t-38 23t-31 49.5t-11.5 80.5v472q0 47 11.5 80.5t31 49.5t38 23t37.5 7q43 0 80.5 -35.5t37.5 -124.5v-472zM209 120v526q0 39 -16 57.5t-40 18.5t-40 -18.5t-16 -57.5 v-526q0 -39 16 -57.5t40 -18.5t40 18.5t16 57.5z" />
<glyph unicode="&#xd3;" horiz-adv-x="306" d="M239 942l-62 -101h-53l44 101h71zM271 147q0 -48 -11.5 -81.5t-31 -49.5t-37.5 -22.5t-38 -6.5q-19 0 -37.5 7t-38 23t-31 49.5t-11.5 80.5v472q0 47 11.5 80.5t31 49.5t38 23t37.5 7q43 0 80.5 -35.5t37.5 -124.5v-472zM209 120v526q0 39 -16 57.5t-40 18.5t-40 -18.5 t-16 -57.5v-526q0 -39 16 -57.5t40 -18.5t40 18.5t16 57.5z" />
<glyph unicode="&#xd4;" horiz-adv-x="306" d="M245 841h-53l-39 62l-36 -62h-56l55 101h70zM271 147q0 -48 -11.5 -81.5t-31 -49.5t-37.5 -22.5t-38 -6.5q-19 0 -37.5 7t-38 23t-31 49.5t-11.5 80.5v472q0 47 11.5 80.5t31 49.5t38 23t37.5 7q43 0 80.5 -35.5t37.5 -124.5v-472zM209 120v526q0 39 -16 57.5t-40 18.5 t-40 -18.5t-16 -57.5v-526q0 -39 16 -57.5t40 -18.5t40 18.5t16 57.5z" />
<glyph unicode="&#xd5;" horiz-adv-x="306" d="M251 903q-4 -29 -21.5 -46t-43.5 -17q-11 0 -30 8.5t-29 8.5q-12 0 -16 -16h-56q10 63 62 63q12 0 33 -7.5t30 -7.5q13 0 13 15zM271 147q0 -48 -11.5 -81.5t-31 -49.5t-37.5 -22.5t-38 -6.5q-19 0 -37.5 7t-38 23t-31 49.5t-11.5 80.5v472q0 47 11.5 80.5t31 49.5t38 23 t37.5 7q43 0 80.5 -35.5t37.5 -124.5v-472zM209 120v526q0 39 -16 57.5t-40 18.5t-40 -18.5t-16 -57.5v-526q0 -39 16 -57.5t40 -18.5t40 18.5t16 57.5z" />
<glyph unicode="&#xd6;" horiz-adv-x="306" d="M262 870q0 -18 -14 -28.5t-32 -10.5q-17 0 -30 13.5t-13 28.5q0 20 13.5 31.5t33.5 11.5t31 -13t11 -33zM132 870q0 -18 -14 -28.5t-32 -10.5q-17 0 -30 13.5t-13 28.5q0 20 13.5 31.5t33.5 11.5t31 -13t11 -33zM271 147q0 -48 -11.5 -81.5t-31 -49.5t-37.5 -22.5 t-38 -6.5q-19 0 -37.5 7t-38 23t-31 49.5t-11.5 80.5v472q0 47 11.5 80.5t31 49.5t38 23t37.5 7q43 0 80.5 -35.5t37.5 -124.5v-472zM209 120v526q0 39 -16 57.5t-40 18.5t-40 -18.5t-16 -57.5v-526q0 -39 16 -57.5t40 -18.5t40 18.5t16 57.5z" />
<glyph unicode="&#xd7;" horiz-adv-x="267" d="M247 440l-75 -70l70 -75l-42 -38l-70 75l-75 -70l-38 42l75 70l-70 75l42 38l70 -75l75 70z" />
<glyph unicode="&#xd8;" horiz-adv-x="306" d="M271 147q0 -48 -11.5 -81.5t-31 -49.5t-37.5 -22.5t-38 -6.5q-37 0 -65 20l-13 -60h-37l20 95q-23 39 -23 105v472q0 47 11.5 80.5t31 49.5t38 23t37.5 7q32 0 59 -18l12 57h37l-19 -86q29 -41 29 -113v-472zM198 696q-16 26 -45 26q-24 0 -40 -18.5t-16 -57.5v-422z M209 120v454l-106 -494q14 -36 50 -36q24 0 40 18.5t16 57.5z" />
<glyph unicode="&#xd9;" horiz-adv-x="310" d="M190 841h-54l-63 101h71zM273 147q0 -48 -11.5 -81.5t-31 -49.5t-37.5 -22.5t-38 -6.5q-19 0 -37.5 7t-38 23t-31 49.5t-11.5 80.5v619h62v-642q0 -39 16 -57.5t40 -18.5t40 18.5t16 57.5v642h62v-619z" />
<glyph unicode="&#xda;" horiz-adv-x="310" d="M248 942l-62 -101h-53l44 101h71zM273 147q0 -48 -11.5 -81.5t-31 -49.5t-37.5 -22.5t-38 -6.5q-19 0 -37.5 7t-38 23t-31 49.5t-11.5 80.5v619h62v-642q0 -39 16 -57.5t40 -18.5t40 18.5t16 57.5v642h62v-619z" />
<glyph unicode="&#xdb;" horiz-adv-x="310" d="M246 841h-53l-39 62l-36 -62h-56l55 101h70zM273 147q0 -48 -11.5 -81.5t-31 -49.5t-37.5 -22.5t-38 -6.5q-19 0 -37.5 7t-38 23t-31 49.5t-11.5 80.5v619h62v-642q0 -39 16 -57.5t40 -18.5t40 18.5t16 57.5v642h62v-619z" />
<glyph unicode="&#xdc;" horiz-adv-x="310" d="M264 870q0 -18 -14 -28.5t-32 -10.5q-17 0 -30 13.5t-13 28.5q0 20 13.5 31.5t33.5 11.5t31 -13t11 -33zM134 870q0 -18 -14 -28.5t-32 -10.5q-17 0 -30 13.5t-13 28.5q0 20 13.5 31.5t33.5 11.5t31 -13t11 -33zM273 147q0 -48 -11.5 -81.5t-31 -49.5t-37.5 -22.5 t-38 -6.5q-19 0 -37.5 7t-38 23t-31 49.5t-11.5 80.5v619h62v-642q0 -39 16 -57.5t40 -18.5t40 18.5t16 57.5v642h62v-619z" />
<glyph unicode="&#xdd;" horiz-adv-x="278" d="M219 942l-62 -101h-53l44 101h71zM278 768l-117 -481v-287h-60v286l-101 481h63l71 -343l81 344h63z" />
<glyph unicode="&#xde;" horiz-adv-x="291" d="M271 333q0 -97 -29.5 -128.5t-106.5 -31.5h-33v-173h-62v766h62v-160h33q77 0 106.5 -31.5t29.5 -128.5v-113zM209 308v163q0 41 -13.5 58.5t-42.5 17.5h-51v-315h51q29 0 42.5 17.5t13.5 58.5z" />
<glyph unicode="&#xdf;" horiz-adv-x="315" d="M283 137q0 -150 -113 -150h-2v52h2q56 0 56 66v343q0 30 -20.5 45.5t-47.5 19.5v50q68 9 68 65v34q0 66 -56 66q-26 0 -40.5 -21.5t-14.5 -91.5v-615h-60v511h-55v54h55v65q0 150 115 150q110 0 110 -134q0 -84 -66 -103q41 -15 55 -47.5t14 -88.5v-270z" />
<glyph unicode="&#xe0;" horiz-adv-x="254" d="M165 642h-54l-63 101h71zM222 0h-47l-13 46q-8 -20 -24 -36.5t-39 -16.5q-39 0 -54 33t-15 117v39q0 142 87 142h45v116q0 43 -7.5 59.5t-28.5 16.5t-28.5 -16.5t-7.5 -59.5v-54h-60v35q0 84 21 117t75 33t75 -33.5t21 -116.5v-421zM162 124v153h-36q-36 0 -36 -96v-57 q0 -43 7.5 -59.5t28.5 -16.5q36 0 36 76z" />
<glyph unicode="&#xe1;" horiz-adv-x="254" d="M213 743l-62 -101h-53l44 101h71zM222 0h-47l-13 46q-8 -20 -24 -36.5t-39 -16.5q-39 0 -54 33t-15 117v39q0 142 87 142h45v116q0 43 -7.5 59.5t-28.5 16.5t-28.5 -16.5t-7.5 -59.5v-54h-60v35q0 84 21 117t75 33t75 -33.5t21 -116.5v-421zM162 124v153h-36 q-36 0 -36 -96v-57q0 -43 7.5 -59.5t28.5 -16.5q36 0 36 76z" />
<glyph unicode="&#xe2;" horiz-adv-x="254" d="M219 642h-53l-39 62l-36 -62h-56l55 101h70zM222 0h-47l-13 46q-8 -20 -24 -36.5t-39 -16.5q-39 0 -54 33t-15 117v39q0 142 87 142h45v116q0 43 -7.5 59.5t-28.5 16.5t-28.5 -16.5t-7.5 -59.5v-54h-60v35q0 84 21 117t75 33t75 -33.5t21 -116.5v-421zM162 124v153h-36 q-36 0 -36 -96v-57q0 -43 7.5 -59.5t28.5 -16.5q36 0 36 76z" />
<glyph unicode="&#xe3;" horiz-adv-x="254" d="M225 704q-4 -29 -21.5 -46t-43.5 -17q-11 0 -30 8.5t-29 8.5q-12 0 -16 -16h-56q10 63 62 63q12 0 33 -7.5t30 -7.5q13 0 13 15zM222 0h-47l-13 46q-8 -20 -24 -36.5t-39 -16.5q-39 0 -54 33t-15 117v39q0 142 87 142h45v116q0 43 -7.5 59.5t-28.5 16.5t-28.5 -16.5 t-7.5 -59.5v-54h-60v35q0 84 21 117t75 33t75 -33.5t21 -116.5v-421zM162 124v153h-36q-36 0 -36 -96v-57q0 -43 7.5 -59.5t28.5 -16.5q36 0 36 76z" />
<glyph unicode="&#xe4;" horiz-adv-x="254" d="M236 671q0 -18 -14 -28.5t-32 -10.5q-17 0 -30 13.5t-13 28.5q0 20 13.5 31.5t33.5 11.5t31 -13t11 -33zM106 671q0 -18 -14 -28.5t-32 -10.5q-17 0 -30 13.5t-13 28.5q0 20 13.5 31.5t33.5 11.5t31 -13t11 -33zM222 0h-47l-13 46q-8 -20 -24 -36.5t-39 -16.5 q-39 0 -54 33t-15 117v39q0 142 87 142h45v116q0 43 -7.5 59.5t-28.5 16.5t-28.5 -16.5t-7.5 -59.5v-54h-60v35q0 84 21 117t75 33t75 -33.5t21 -116.5v-421zM162 124v153h-36q-36 0 -36 -96v-57q0 -43 7.5 -59.5t28.5 -16.5q36 0 36 76z" />
<glyph unicode="&#xe5;" horiz-adv-x="254" d="M191 682q0 -27 -19.5 -46t-45.5 -19q-25 0 -44.5 17t-19.5 49q0 27 19.5 45.5t46.5 18.5q26 0 44.5 -19.5t18.5 -45.5zM222 0h-47l-13 46q-8 -20 -24 -36.5t-39 -16.5q-39 0 -54 33t-15 117v39q0 142 87 142h45v116q0 43 -7.5 59.5t-28.5 16.5t-28.5 -16.5t-7.5 -59.5 v-54h-60v35q0 84 21 117t75 33t75 -33.5t21 -116.5v-421zM163 683q0 14 -11 25t-26 11q-15 -1 -25 -12t-10 -25q0 -17 11 -26.5t26 -9.5q14 0 25 11t10 26zM162 124v153h-36q-36 0 -36 -96v-57q0 -43 7.5 -59.5t28.5 -16.5q36 0 36 76z" />
<glyph unicode="&#xe6;" horiz-adv-x="379" d="M354 141q0 -84 -21 -117t-75 -33q-40 0 -61 16.5t-29 54.5q-25 -69 -69 -69q-39 0 -54 33t-15 117v39q0 142 87 142h45v116q0 43 -7.5 59.5t-28.5 16.5t-28.5 -16.5t-7.5 -59.5v-54h-60v35q0 84 21 117t75 33q44 0 66 -22q22 22 66 22q54 0 75 -33t21 -117v-160h-132 v-151q0 -35 8 -49.5t28 -14.5q21 0 28.5 16.5t7.5 59.5v65h60v-46zM294 315v125q0 43 -7.5 59.5t-28.5 16.5t-28.5 -16.5t-7.5 -59.5v-125h72zM162 124v153h-36q-36 0 -36 -96v-57q0 -43 7.5 -59.5t28.5 -16.5q36 0 36 76z" />
<glyph unicode="&#xe7;" horiz-adv-x="247" d="M222 141q0 -71 -15 -105t-51 -42l-50 -87h-27l34 85q-47 4 -65 37.5t-18 111.5v288q0 83 21 116.5t75 33.5t75 -33t21 -117v-70h-60v89q0 43 -7.5 59.5t-28.5 16.5t-28.5 -16.5t-7.5 -59.5v-326q0 -43 7.5 -59.5t28.5 -16.5t28.5 16.5t7.5 59.5v100h60v-81z" />
<glyph unicode="&#xe8;" horiz-adv-x="247" d="M162 642h-54l-63 101h71zM222 141q0 -84 -21 -117t-75 -33t-75 33.5t-21 116.5v280q0 83 21 116.5t75 33.5t75 -33t21 -117v-160h-132v-139q0 -43 7.5 -59.5t28.5 -16.5t28.5 16.5t7.5 59.5v65h60v-46zM162 315v125q0 43 -7.5 59.5t-28.5 16.5t-28.5 -16.5t-7.5 -59.5 v-125h72z" />
<glyph unicode="&#xe9;" horiz-adv-x="247" d="M210 743l-62 -101h-53l44 101h71zM222 141q0 -84 -21 -117t-75 -33t-75 33.5t-21 116.5v280q0 83 21 116.5t75 33.5t75 -33t21 -117v-160h-132v-139q0 -43 7.5 -59.5t28.5 -16.5t28.5 16.5t7.5 59.5v65h60v-46zM162 315v125q0 43 -7.5 59.5t-28.5 16.5t-28.5 -16.5 t-7.5 -59.5v-125h72z" />
<glyph unicode="&#xea;" horiz-adv-x="247" d="M215 642h-53l-39 62l-36 -62h-56l55 101h70zM222 141q0 -84 -21 -117t-75 -33t-75 33.5t-21 116.5v280q0 83 21 116.5t75 33.5t75 -33t21 -117v-160h-132v-139q0 -43 7.5 -59.5t28.5 -16.5t28.5 16.5t7.5 59.5v65h60v-46zM162 315v125q0 43 -7.5 59.5t-28.5 16.5 t-28.5 -16.5t-7.5 -59.5v-125h72z" />
<glyph unicode="&#xeb;" horiz-adv-x="247" d="M233 671q0 -18 -14 -28.5t-32 -10.5q-17 0 -30 13.5t-13 28.5q0 20 13.5 31.5t33.5 11.5t31 -13t11 -33zM103 671q0 -18 -14 -28.5t-32 -10.5q-17 0 -30 13.5t-13 28.5q0 20 13.5 31.5t33.5 11.5t31 -13t11 -33zM222 141q0 -84 -21 -117t-75 -33t-75 33.5t-21 116.5v280 q0 83 21 116.5t75 33.5t75 -33t21 -117v-160h-132v-139q0 -43 7.5 -59.5t28.5 -16.5t28.5 16.5t7.5 59.5v65h60v-46zM162 315v125q0 43 -7.5 59.5t-28.5 16.5t-28.5 -16.5t-7.5 -59.5v-125h72z" />
<glyph unicode="&#xec;" horiz-adv-x="130" d="M97 642h-54l-63 101h71zM95 0h-60v567h60v-567z" />
<glyph unicode="&#xed;" horiz-adv-x="130" d="M152 743l-62 -101h-53l44 101h71zM95 0h-60v567h60v-567z" />
<glyph unicode="&#xee;" horiz-adv-x="130" d="M157 642h-53l-39 62l-36 -62h-56l55 101h70zM95 0h-60v567h60v-567z" />
<glyph unicode="&#xef;" horiz-adv-x="130" d="M175 671q0 -18 -14 -28.5t-32 -10.5q-17 0 -30 13.5t-13 28.5q0 20 13.5 31.5t33.5 11.5t31 -13t11 -33zM45 671q0 -18 -14 -28.5t-32 -10.5q-17 0 -30 13.5t-13 28.5q0 20 13.5 31.5t33.5 11.5t31 -13t11 -33zM95 0h-60v567h60v-567z" />
<glyph unicode="&#xf0;" horiz-adv-x="257" d="M253 638h-31v-497q0 -84 -21 -117t-75 -33t-75 33.5t-21 116.5v280q0 83 21 116.5t75 33.5q18 0 36 -5v72h-39v34h38q-4 47 -35 47h-30v50q22 5 40 5q72 0 83 -102h34v-34zM162 122v330q0 35 -8 49.5t-28 14.5q-21 0 -28.5 -16.5t-7.5 -59.5v-318q0 -43 7.5 -59.5 t28.5 -16.5t28.5 16.5t7.5 59.5z" />
<glyph unicode="&#xf1;" horiz-adv-x="260" d="M227 704q-4 -29 -21.5 -46t-43.5 -17q-11 0 -30 8.5t-29 8.5q-12 0 -16 -16h-56q10 63 62 63q12 0 33 -7.5t30 -7.5q13 0 13 15zM227 2h-60v440q0 43 -7.5 59.5t-28.5 16.5q-36 0 -36 -64v-452h-60v565h50l10 -40q30 49 54 49q40 0 59 -35.5t19 -117.5v-421z" />
<glyph unicode="&#xf2;" horiz-adv-x="252" d="M154 642h-54l-63 101h71zM222 141q0 -84 -21 -117t-75 -33t-75 33.5t-21 116.5v280q0 83 21 116.5t75 33.5t75 -33t21 -117v-280zM162 122v318q0 43 -7.5 59.5t-28.5 16.5t-28.5 -16.5t-7.5 -59.5v-318q0 -43 7.5 -59.5t28.5 -16.5t28.5 16.5t7.5 59.5z" />
<glyph unicode="&#xf3;" horiz-adv-x="252" d="M211 743l-62 -101h-53l44 101h71zM222 141q0 -84 -21 -117t-75 -33t-75 33.5t-21 116.5v280q0 83 21 116.5t75 33.5t75 -33t21 -117v-280zM162 122v318q0 43 -7.5 59.5t-28.5 16.5t-28.5 -16.5t-7.5 -59.5v-318q0 -43 7.5 -59.5t28.5 -16.5t28.5 16.5t7.5 59.5z" />
<glyph unicode="&#xf4;" horiz-adv-x="252" d="M215 642h-53l-39 62l-36 -62h-56l55 101h70zM222 141q0 -84 -21 -117t-75 -33t-75 33.5t-21 116.5v280q0 83 21 116.5t75 33.5t75 -33t21 -117v-280zM162 122v318q0 43 -7.5 59.5t-28.5 16.5t-28.5 -16.5t-7.5 -59.5v-318q0 -43 7.5 -59.5t28.5 -16.5t28.5 16.5t7.5 59.5 z" />
<glyph unicode="&#xf5;" horiz-adv-x="252" d="M223 704q-4 -29 -21.5 -46t-43.5 -17q-11 0 -30 8.5t-29 8.5q-12 0 -16 -16h-56q10 63 62 63q12 0 33 -7.5t30 -7.5q13 0 13 15zM222 141q0 -84 -21 -117t-75 -33t-75 33.5t-21 116.5v280q0 83 21 116.5t75 33.5t75 -33t21 -117v-280zM162 122v318q0 43 -7.5 59.5 t-28.5 16.5t-28.5 -16.5t-7.5 -59.5v-318q0 -43 7.5 -59.5t28.5 -16.5t28.5 16.5t7.5 59.5z" />
<glyph unicode="&#xf6;" horiz-adv-x="252" d="M236 671q0 -18 -14 -28.5t-32 -10.5q-17 0 -30 13.5t-13 28.5q0 20 13.5 31.5t33.5 11.5t31 -13t11 -33zM106 671q0 -18 -14 -28.5t-32 -10.5q-17 0 -30 13.5t-13 28.5q0 20 13.5 31.5t33.5 11.5t31 -13t11 -33zM222 141q0 -84 -21 -117t-75 -33t-75 33.5t-21 116.5v280 q0 83 21 116.5t75 33.5t75 -33t21 -117v-280zM162 122v318q0 43 -7.5 59.5t-28.5 16.5t-28.5 -16.5t-7.5 -59.5v-318q0 -43 7.5 -59.5t28.5 -16.5t28.5 16.5t7.5 59.5z" />
<glyph unicode="&#xf7;" horiz-adv-x="312" d="M203 513q0 -18 -14 -28.5t-32 -10.5q-17 0 -30 13.5t-13 28.5q0 20 13.5 31.5t33.5 11.5t31 -13t11 -33zM288 344h-262v56h262v-56zM203 220q0 -18 -14 -28.5t-32 -10.5q-17 0 -30 13.5t-13 28.5q0 20 13.5 31.5t33.5 11.5t31 -13t11 -33z" />
<glyph unicode="&#xf8;" horiz-adv-x="252" d="M222 141q0 -84 -21 -117t-75 -33q-27 0 -42 7l-11 -48h-37l16 72q-22 33 -22 119v280q0 83 21 116.5t75 33.5q22 0 43 -7l11 49h37l-16 -75q21 -32 21 -117v-280zM155 497q-9 19 -29 19q-21 0 -28.5 -16.5t-7.5 -59.5v-244zM162 122v236l-64 -296q7 -16 28 -16t28.5 16.5 t7.5 59.5z" />
<glyph unicode="&#xf9;" d="M168 642h-54l-63 101h71zM224 1h-50l-10 40q-30 -49 -54 -49q-40 0 -59 35.5t-19 117.5v422h60v-441q0 -43 7.5 -59.5t28.5 -16.5q36 0 36 64v453h60v-566z" />
<glyph unicode="&#xfa;" d="M217 743l-62 -101h-53l44 101h71zM224 1h-50l-10 40q-30 -49 -54 -49q-40 0 -59 35.5t-19 117.5v422h60v-441q0 -43 7.5 -59.5t28.5 -16.5q36 0 36 64v453h60v-566z" />
<glyph unicode="&#xfb;" d="M218 642h-53l-39 62l-36 -62h-56l55 101h70zM224 1h-50l-10 40q-30 -49 -54 -49q-40 0 -59 35.5t-19 117.5v422h60v-441q0 -43 7.5 -59.5t28.5 -16.5q36 0 36 64v453h60v-566z" />
<glyph unicode="&#xfc;" d="M239 671q0 -18 -14 -28.5t-32 -10.5q-17 0 -30 13.5t-13 28.5q0 20 13.5 31.5t33.5 11.5t31 -13t11 -33zM109 671q0 -18 -14 -28.5t-32 -10.5q-17 0 -30 13.5t-13 28.5q0 20 13.5 31.5t33.5 11.5t31 -13t11 -33zM224 1h-50l-10 40q-30 -49 -54 -49q-40 0 -59 35.5 t-19 117.5v422h60v-441q0 -43 7.5 -59.5t28.5 -16.5q36 0 36 64v453h60v-566z" />
<glyph unicode="&#xfd;" horiz-adv-x="229" d="M202 743l-62 -101h-53l44 101h71zM229 567l-116 -767h-64l28 176l-77 591h64l48 -432q0 -19 2 -51l2 6q2 30 2 45l47 432h64z" />
<glyph unicode="&#xfe;" horiz-adv-x="262" d="M232 145q0 -89 -10.5 -121t-48.5 -32q-36 0 -73 49v-240h-60v965h60v-244q8 20 24 36.5t39 16.5q39 0 54 -33t15 -117v-280zM172 126v318q0 43 -7.5 59.5t-28.5 16.5q-36 0 -36 -76v-330q0 -64 36 -64q21 0 28.5 16.5t7.5 59.5z" />
<glyph unicode="&#xff;" horiz-adv-x="229" d="M224 671q0 -18 -14 -28.5t-32 -10.5q-17 0 -30 13.5t-13 28.5q0 20 13.5 31.5t33.5 11.5t31 -13t11 -33zM94 671q0 -18 -14 -28.5t-32 -10.5q-17 0 -30 13.5t-13 28.5q0 20 13.5 31.5t33.5 11.5t31 -13t11 -33zM229 567l-116 -767h-64l28 176l-77 591h64l48 -432 q0 -19 2 -51l2 6q2 30 2 45l47 432h64z" />
<glyph unicode="&#x152;" horiz-adv-x="428" d="M413 0h-204q-25 -13 -56 -13q-19 0 -37.5 7t-38 23t-31 49.5t-11.5 80.5v472q0 47 11.5 80.5t31 49.5t38 23t37.5 7q28 0 57 -13h203v-62h-142v-287h135v-62h-135v-293h142v-62zM209 120v534q0 34 -16.5 51t-39.5 17q-24 0 -40 -18.5t-16 -57.5v-526q0 -39 16 -57.5 t40 -18.5t40 18.5t16 57.5z" />
<glyph unicode="&#x153;" horiz-adv-x="379" d="M354 141q0 -84 -21 -117t-75 -33q-44 0 -66 22q-22 -22 -66 -22q-54 0 -75 33.5t-21 116.5v280q0 83 21 116.5t75 33.5q44 0 66 -22q22 22 66 22q54 0 75 -33t21 -117v-160h-132v-139q0 -43 7.5 -59.5t28.5 -16.5t28.5 16.5t7.5 59.5v65h60v-46zM294 315v125 q0 43 -7.5 59.5t-28.5 16.5t-28.5 -16.5t-7.5 -59.5v-125h72zM162 122v318q0 43 -7.5 59.5t-28.5 16.5t-28.5 -16.5t-7.5 -59.5v-318q0 -43 7.5 -59.5t28.5 -16.5t28.5 16.5t7.5 59.5z" />
<glyph unicode="&#x178;" horiz-adv-x="278" d="M244 870q0 -18 -14 -28.5t-32 -10.5q-17 0 -30 13.5t-13 28.5q0 20 13.5 31.5t33.5 11.5t31 -13t11 -33zM114 870q0 -18 -14 -28.5t-32 -10.5q-17 0 -30 13.5t-13 28.5q0 20 13.5 31.5t33.5 11.5t31 -13t11 -33zM278 768l-117 -481v-287h-60v286l-101 481h63l71 -343 l81 344h63z" />
<glyph unicode="&#x2c6;" horiz-adv-x="203" d="M192 642h-53l-39 62l-36 -62h-56l55 101h70z" />
<glyph unicode="&#x2dc;" horiz-adv-x="203" d="M199 704q-4 -29 -21.5 -46t-43.5 -17q-11 0 -30 8.5t-29 8.5q-12 0 -16 -16h-56q10 63 62 63q12 0 33 -7.5t30 -7.5q13 0 13 15z" />
<glyph unicode="&#x2000;" horiz-adv-x="473" />
<glyph unicode="&#x2001;" horiz-adv-x="946" />
<glyph unicode="&#x2002;" horiz-adv-x="473" />
<glyph unicode="&#x2003;" horiz-adv-x="946" />
<glyph unicode="&#x2004;" horiz-adv-x="315" />
<glyph unicode="&#x2005;" horiz-adv-x="236" />
<glyph unicode="&#x2006;" horiz-adv-x="157" />
<glyph unicode="&#x2007;" horiz-adv-x="157" />
<glyph unicode="&#x2008;" horiz-adv-x="118" />
<glyph unicode="&#x2009;" horiz-adv-x="189" />
<glyph unicode="&#x200a;" horiz-adv-x="52" />
<glyph unicode="&#x2010;" horiz-adv-x="249" d="M223 264h-199v56h199v-56z" />
<glyph unicode="&#x2011;" horiz-adv-x="249" d="M223 264h-199v56h199v-56z" />
<glyph unicode="&#x2012;" horiz-adv-x="249" d="M223 264h-199v56h199v-56z" />
<glyph unicode="&#x2013;" horiz-adv-x="242" d="M216 264h-192v56h192v-56z" />
<glyph unicode="&#x2014;" horiz-adv-x="377" d="M351 264h-327v56h327v-56z" />
<glyph unicode="&#x2018;" horiz-adv-x="129" d="M145 767l-91 -207h-72l129 207h34z" />
<glyph unicode="&#x2019;" horiz-adv-x="130" d="M146 766l-129 -207h-34l91 207h72z" />
<glyph unicode="&#x201a;" horiz-adv-x="126" d="M117 83l-127 -218h-36l88 218h75z" />
<glyph unicode="&#x201c;" horiz-adv-x="252" d="M268 767l-91 -207h-72l129 207h34zM146 767l-93 -207h-71l129 207h35z" />
<glyph unicode="&#x201d;" horiz-adv-x="253" d="M269 766l-129 -207h-35l93 207h71zM146 766l-129 -207h-34l91 207h72z" />
<glyph unicode="&#x201e;" horiz-adv-x="249" d="M240 83l-129 -207h-35l93 207h71zM117 83l-129 -207h-34l91 207h72z" />
<glyph unicode="&#x2022;" horiz-adv-x="284" d="M266 344q0 -55 -36 -88.5t-83 -33.5q-52 0 -88.5 34.5t-36.5 87.5q0 50 36 86t87 36q44 0 82.5 -29t38.5 -93z" />
<glyph unicode="&#x2026;" horiz-adv-x="397" d="M372 29q0 -18 -14 -28.5t-32 -10.5q-17 0 -30 13.5t-13 28.5q0 20 13.5 31.5t33.5 11.5t31 -13t11 -33zM242 29q0 -18 -14 -28.5t-32 -10.5q-17 0 -30 13.5t-13 28.5q0 20 13.5 31.5t33.5 11.5t31 -13t11 -33zM112 29q0 -18 -14 -28.5t-32 -10.5q-17 0 -30 13.5t-13 28.5 q0 20 13.5 31.5t33.5 11.5t31 -13t11 -33z" />
<glyph unicode="&#x202f;" horiz-adv-x="189" />
<glyph unicode="&#x2039;" horiz-adv-x="170" d="M149 121h-62l-73 167l73 169h62l-74 -169z" />
<glyph unicode="&#x203a;" horiz-adv-x="171" d="M155 288l-73 -167h-62l74 167l-74 169h62z" />
<glyph unicode="&#x205f;" horiz-adv-x="236" />
<glyph unicode="&#x20ac;" horiz-adv-x="318" d="M288 147q0 -48 -11.5 -81.5t-31 -49.5t-37.5 -22.5t-38 -6.5q-19 0 -37.5 7t-38 23t-31 49.5t-11.5 80.5v147h-38v56h38v64h-39v56h39v149q0 47 11.5 80.5t31 49.5t38 23t37.5 7q20 0 38 -6.5t37.5 -22.5t31 -49.5t11.5 -81.5v-50h-62v77q0 39 -16 57.5t-40 18.5 t-40 -18.5t-16 -57.5v-176h161v-56h-161v-64h162v-56h-162v-174q0 -39 16 -57.5t40 -18.5t40 18.5t16 57.5v66h62v-39z" />
<glyph unicode="&#x2122;" horiz-adv-x="576" d="M547 414h-53v251l6 47l-14 -45l-80 -253h-30l-74 253l-14 45l6 -47v-251h-52v352h80l68 -245l4 -59l4 59l68 245h81v-352zM218 714h-80v-300h-53v300h-80v52h213v-52z" />
<glyph unicode="&#xe000;" horiz-adv-x="565" d="M0 565h565v-565h-565v565z" />
<glyph unicode="&#xfb01;" horiz-adv-x="308" d="M291 686q0 -20 -13.5 -31.5t-33.5 -11.5t-31 13t-11 33q0 18 14 28.5t32 10.5q17 0 30 -13.5t13 -28.5zM273 0h-60v567h60v-567zM181 717h-30q-21 0 -28.5 -16.5t-7.5 -59.5v-75h65v-54h-65v-512h-60v512h-55v54h55v56q0 150 86 150q18 0 40 -5v-50z" />
<glyph unicode="&#xfb02;" horiz-adv-x="314" d="M274 0h-60v767h60v-767zM181 717h-30q-21 0 -28.5 -16.5t-7.5 -59.5v-75h65v-54h-65v-512h-60v512h-55v54h55v56q0 150 86 150q18 0 40 -5v-50z" />
<glyph unicode="&#xfb03;" horiz-adv-x="472" d="M455 686q0 -20 -13.5 -31.5t-33.5 -11.5t-31 13t-11 33q0 18 14 28.5t32 10.5q17 0 30 -13.5t13 -28.5zM437 0h-60v567h60v-567zM352 717h-30q-21 0 -28.5 -16.5t-7.5 -59.5v-75h65v-54h-65v-512h-60v512h-55v54h55v56q0 150 86 150q18 0 40 -5v-50zM181 717h-30 q-21 0 -28.5 -16.5t-7.5 -59.5v-75h65v-54h-65v-512h-60v512h-55v54h55v56q0 150 86 150q18 0 40 -5v-50z" />
<glyph unicode="&#xfb04;" horiz-adv-x="482" d="M442 0h-60v767h60v-767zM352 717h-30q-21 0 -28.5 -16.5t-7.5 -59.5v-75h65v-54h-65v-512h-60v512h-55v54h55v56q0 150 86 150q18 0 40 -5v-50zM181 717h-30q-21 0 -28.5 -16.5t-7.5 -59.5v-75h65v-54h-65v-512h-60v512h-55v54h55v56q0 150 86 150q18 0 40 -5v-50z" />
</font>
</defs>
</svg>
