<?xml version="1.0" standalone="no"?> <!DOCTYPE svg PUBLIC "-//W3C//DTD SVG 1.0//EN" "http://www.w3.org/TR/2001/REC-SVG-20010904/DTD/svg10.dtd" > <svg xmlns="http://www.w3.org/2000/svg" width="100%" height="100%">
<defs >
<font id="lettergothicstd" horiz-adv-x="1228" ><font-face
    font-family="Letter Gothic Std"
    units-per-em="2048"
    panose-1="2 11 4 9 2 2 2 3 3 4"
    ascent="1520"
    descent="-529"
    alphabetic="0" />
<missing-glyph d="M102 0V1434H1126V0H102ZM614 809L963 1331H266L614 809ZM676 717L1024 195V1239L676 717ZM266 102H963L614 625L266 102ZM205 1239V195L553 717L205 1239Z" />
<glyph unicode=" " glyph-name="space" />
<glyph unicode="!" glyph-name="exclam" d="M686 1475L659 465H578L543 1475H686ZM471 52T471 109T511 207T608 248T706 207T748 109Q748 52 707 12T608 -29T511 11Z" />
<glyph unicode="&quot;" glyph-name="quotedbl" d="M356 1475H549V1247L494 971H412L356 1247V1475ZM682 1475H874V1247L819 971H737L682 1247V1475Z" />
<glyph unicode="#" glyph-name="numbersign" d="M547 1649H637L305 -197H213L338 489H63L80 580H354L412 901H137L154 991H428L547 1649ZM674 -197H582L920 1649H1010L891 991H1167L1149 901H874L817 580H1092L1075 489H801L674 -197Z" />
<glyph unicode="$" glyph-name="dollar" d="M950 1241L893 1165Q773 1277 655 1288V815Q725 791 778 761T874 687T940 585T963 451Q963 311 880 227T655 131V-63H559V131Q383 134 238 276L297 348Q433 223 559 213V745Q437 785 356 868T274 1073Q274 1191 358
1273T559 1370V1520H655V1370Q813 1355 950 1241ZM559 838V1284Q480 1272 426 1212T371 1067Q371 990 427 929T559 838ZM655 725V213Q745 217 805 285T866 446Q866 546 809 616T655 725Z" />
<glyph unicode="%" glyph-name="percent" d="M266 1116Q266 977 377 977Q428 977 469 1012T532 1099T566 1206T578 1307Q578 1365 552 1403T471 1442Q418 1442 377 1409T312 1323T278 1218T266 1116ZM948 1503H1034L281 0H195L948 1503ZM176 1133Q176 1224 207
1306T307 1446T469 1503Q569 1503 618 1447T668 1290Q668 1125 579 1020T373 915Q272 915 224 973T176 1133ZM561 195Q561 286 592 368T692 508T854 565Q954 565 1003 509T1053 352Q1053 187 964 82T758 -23Q657 -23 609 35T561 195ZM651 178Q651 39 762 39Q813
39 854 74T917 161T951 268T963 369Q963 427 937 465T856 504Q803 504 762 471T697 385T663 280T651 178Z" />
<glyph unicode="&amp;" glyph-name="ampersand" d="M807 229L487 717Q385 587 351 530Q279 408 279 295Q279 186 339 120T508 53Q605 53 681 99T807 229ZM557 803L846 332Q862 387 870 460T880 583T881 727H983Q978 565 962 453T907 246L1083 37L1016 -33L856
158Q722 -29 510 -29Q362 -29 269 57T176 289Q176 361 194 426T250 555T322 665T412 780Q428 799 436 809Q399 870 383 900T341 983T304 1085T293 1182Q293 1243 308 1298T353 1401T434 1475T553 1503Q651 1503 716 1423T782 1235Q782 1187 770 1141T742 1058T695
978T641 904T579 829Q564 812 557 803ZM541 1421Q502 1421 473 1400T427 1346T403 1276T395 1204Q395 1114 420 1044T504 879Q525 911 551 950T590 1009T619 1054T642 1091T657 1118T669 1144T675 1164T679 1188T679 1212T680 1243Q680 1310 643 1365T541 1421Z"
/>
<glyph unicode="&apos;" glyph-name="quotesingle" d="M518 1475H711V1247L655 971H573L518 1247V1475Z" />
<glyph unicode="(" glyph-name="parenleft" d="M809 -82L764 -141Q576 -11 481 214T385 688Q385 849 423 1001T549 1292T764 1520L809 1458Q638 1329 560 1127T481 688Q481 452 559 250T809 -82Z" />
<glyph unicode=")" glyph-name="parenright" d="M420 1458L465 1520Q592 1432 679 1293T805 1001T844 688Q844 440 749 215T465 -141L420 -82Q591 47 669 249T748 688Q748 801 731 906T676 1113T573 1304T420 1458Z" />
<glyph unicode="*" glyph-name="asterisk" d="M569 1475H657V1071L1044 1186L1071 1100L672 985L926 664L858 610L614 920L377 610L307 664L555 985L158 1100L182 1186L569 1071V1475Z" />
<glyph unicode="+" glyph-name="plus" d="M1159 782V692H659V193H569V692H70V782H569V1282H659V782H1159Z" />
<glyph unicode="," glyph-name="comma" d="M502 -227V-141Q555 -126 599 -96T662 -20Q656 -20 641 -25Q638 -25 632 -26T623 -27Q566 -27 532 8T498 100Q498 158 537 195T633 233Q697 233 736 183T776 66Q776 -37 693 -116T502 -227Z" />
<glyph unicode="-" glyph-name="hyphen" d="M856 694H373V776H856V694Z" />
<glyph unicode="." glyph-name="period" d="M477 109Q477 165 517 206T614 248Q671 248 712 207T754 109Q754 52 713 12T614 -29Q558 -29 518 11T477 109Z" />
<glyph unicode="/" glyph-name="slash" d="M358 -55H264L870 1530H965L358 -55Z" />
<glyph unicode="0" glyph-name="zero" d="M1020 737Q1020 411 971 264Q929 132 838 52T614 -29Q487 -29 398 47T264 248Q209 404 209 737Q209 1061 258 1210Q300 1343 390 1423T614 1503Q742 1503 831 1428T965 1227Q1020 1067 1020 737ZM924 737Q924 1027 885
1159Q855 1271 787 1347T614 1423Q556 1423 508 1399T427 1332T372 1241T336 1137Q305 1003 305 737Q305 447 344 313Q374 202 442 127T614 51Q672 51 720 75T802 143T857 234T893 338Q924 470 924 737Z" />
<glyph unicode="1" glyph-name="one" d="M668 1520V82H940V0H291V82H571V1397L276 1305V1395L668 1520Z" />
<glyph unicode="2" glyph-name="two" d="M322 82H1010V0H225Q225 128 237 210T291 375T399 532T586 711Q712 820 750 860Q907 1020 907 1165Q907 1281 838 1351T653 1421Q520 1421 443 1332T356 1106H260Q275 1284 377 1393T655 1503Q815 1503 909 1411T1004 1159Q1004
1101 987 1046T942 946T874 857T795 775T710 698Q690 681 680 672Q563 568 495 494T388 352T337 225T322 82Z" />
<glyph unicode="3" glyph-name="three" d="M535 756V838Q671 838 767 926T864 1149Q864 1262 781 1341T582 1421Q483 1421 403 1366T274 1219L193 1264Q255 1376 359 1439T590 1503Q745 1503 853 1395T961 1135Q961 1024 896 938T725 805Q866 759 947 656T1028
408Q1028 219 906 98T592 -23Q451 -23 352 41T172 231L258 283Q365 59 588 59Q743 59 837 147T932 389Q932 482 901 553T816 668T690 734T535 756Z" />
<glyph unicode="4" glyph-name="four" d="M840 1503V477H1049V395H840V0H743V395H143V467L688 1503H840ZM743 477V1436H739L248 477H743Z" />
<glyph unicode="5" glyph-name="five" d="M920 1475V1393H387L338 754Q452 907 625 907Q703 907 772 877T895 792T980 647T1012 449Q1012 357 984 273T906 122T776 17T600 -23Q389 -23 236 199L307 254Q356 168 437 114T612 59Q701 59 771 112T878 251T915 440Q915
524 895 592T845 703T775 774T699 813T627 825Q462 825 358 657L244 680L303 1475H920Z" />
<glyph unicode="6" glyph-name="six" d="M928 471Q928 542 912 605T864 722T774 808T643 840Q591 840 537 814T434 738T355 609T324 432Q324 365 341 301T391 182T481 93T610 59Q677 59 732 83T822 146T882 240T917 351T928 471ZM999 1427L952 1346Q849 1421 752
1421Q676 1421 609 1385T494 1289T408 1153T349 995T317 836T311 694Q445 922 662 922Q750 922 821 883T935 778T1001 634T1024 471Q1024 374 998 287T923 129T792 18T608 -23Q546 -23 492 -5T385 60T297 179T238 364T215 623Q215 798 245 945T328 1193T449 1366T596
1470T756 1503Q885 1503 999 1427Z" />
<glyph unicode="7" glyph-name="seven" d="M211 1475H985L418 0H311L862 1393H211V1475Z" />
<glyph unicode="8" glyph-name="eight" d="M260 545T260 389T357 146T614 59T871 146T969 389T871 636T614 727Q457 727 359 636ZM915 1116Q915 1258 834 1339T612 1421Q467 1421 387 1336T307 1102Q307 969 392 889T612 809Q752 809 833 892T915 1116ZM422 770Q325
812 268 909T211 1116Q211 1292 324 1397T614 1503Q794 1503 903 1399T1012 1116Q1012 1005 958 908T807 770Q935 725 1000 627T1065 389Q1065 196 948 87T614 -23Q392 -23 278 87T164 389Q164 528 228 626T422 770Z" />
<glyph unicode="9" glyph-name="nine" d="M227 47L274 129Q373 59 477 59Q553 59 619 94T734 189T820 324T880 480T912 638T918 780Q781 553 567 553Q479 553 408 592T293 696T226 839T203 1001Q203 1079 219 1151T269 1288T351 1400T469 1475T621 1503Q836 1503
942 1276Q1014 1118 1014 852Q1014 535 913 309Q849 164 735 71T473 -23Q339 -23 227 47ZM299 1004Q299 948 308 896T340 796T395 713T477 656T586 635Q651 635 712 672T819 766Q905 879 905 1042Q905 1109 888 1174T837 1295T746 1386T616 1421Q549 1421 495 1397T405
1332T345 1236T310 1124T299 1004Z" />
<glyph unicode=":" glyph-name="colon" d="M475 109Q475 165 515 206T612 248Q669 248 710 207T752 109Q752 52 711 12T612 -29Q556 -29 516 11T475 109ZM475 827Q475 884 515 925T612 967Q669 967 710 926T752 827Q752 771 711 731T612 690Q556 690 516 730T475 827Z" />
<glyph unicode=";" glyph-name="semicolon" d="M502 -227V-141Q555 -126 599 -96T662 -20Q656 -20 641 -25Q638 -25 632 -26T623 -27Q566 -27 532 8T498 100Q498 158 537 195T633 233Q697 233 736 183T776 66Q776 -37 693 -116T502 -227ZM498 827Q498 884 538
925T635 967T733 926T774 827Q774 771 733 731T635 690T538 730T498 827Z" />
<glyph unicode="&lt;" glyph-name="less" d="M201 737L977 1475L1028 1409L332 737L1028 66L977 0L201 737Z" />
<glyph unicode="=" glyph-name="equal" d="M1159 920V829H70V920H1159ZM1159 645V555H70V645H1159Z" />
<glyph unicode="&gt;" glyph-name="greater" d="M252 1475L1028 737L252 0L201 66L897 737L201 1409L252 1475Z" />
<glyph unicode="?" glyph-name="question" d="M651 459H555V659Q555 733 571 768Q594 820 727 924Q793 976 822 1027T852 1157Q852 1276 785 1348T600 1421Q495 1421 430 1358T360 1190H258Q270 1336 362 1419T602 1503Q764 1503 856 1408T948 1151Q948 1093 938
1050T902 969T849 905T770 838Q745 818 730 806T701 777T679 754T666 728T657 703T653 671T651 634T651 584V459ZM481 109Q481 165 521 206T618 248Q675 248 716 207T758 109Q758 52 717 12T618 -29Q562 -29 522 11T481 109Z" />
<glyph unicode="@" glyph-name="at" d="M1055 225L1090 133Q971 58 837 15T569 -29Q489 -29 411 -7T260 66T132 188T44 370T10 610Q10 781 56 941T185 1227T390 1427T657 1503Q769 1503 870 1460T1050 1338T1174 1143T1221 885Q1221 825 1211 761T1177 629T1117
508T1027 421T905 387Q842 387 792 418T725 508Q686 451 631 416T510 381Q431 381 385 433T338 567Q338 657 371 759T457 926Q554 1044 805 1044H870L817 725Q806 660 806 612T814 537T838 494T870 474T907 469Q965 469 1010 512T1078 620T1113 749T1124 868Q1124
983 1094 1078T1016 1236T907 1341T786 1402T668 1421Q554 1421 458 1369T299 1234T191 1043T126 828T106 614Q106 493 135 396T211 235T321 130T448 71T580 53Q700 53 814 98T1055 225ZM743 825L764 963Q714 959 657 942T567 899Q515 858 475 756T434 580Q434
535 457 499T520 463Q551 463 580 478T642 531T700 644T743 825Z" />
<glyph unicode="A" glyph-name="A" d="M616 1534L1110 0H1001L868 449H367L231 0H125L616 1534ZM616 1272L387 530H848L616 1272Z" />
<glyph unicode="B" glyph-name="B" d="M340 82H649Q697 82 745 100T838 152T910 247T938 385Q938 526 845 626T594 727H340V82ZM666 0H244V1475H604Q768 1475 868 1378T969 1114Q969 885 733 780Q877 738 955 638T1034 389Q1034 224 935 112T666 0ZM340 809H489Q674
809 773 892T872 1120Q872 1183 858 1230T809 1315T712 1373T559 1393H340V809Z" />
<glyph unicode="C" glyph-name="C" d="M1008 1196H911Q907 1292 837 1356T668 1421Q597 1421 540 1395T445 1328T379 1226T336 1106T313 973T302 845T299 727Q299 665 301 612T311 487T334 359T376 243T439 144T531 79T655 53Q770 53 848 129T932 319H1028Q1013
156 912 64T647 -29Q566 -29 500 -3T388 66T307 171T252 297T219 439T202 581T197 717Q197 792 201 859T217 1009T251 1158T308 1291T392 1402T511 1475T668 1503Q803 1503 899 1417T1008 1196Z" />
<glyph unicode="D" glyph-name="D" d="M252 0V1475H621Q743 1475 833 1417T973 1266Q1063 1101 1063 737Q1063 606 1049 498T1013 322T975 220T944 164Q830 0 592 0H252ZM348 1393V82H530Q599 82 647 88T746 113T835 171T899 270Q961 412 961 737Q961 1082 893
1219Q865 1275 827 1311T740 1364T643 1387T530 1393H348Z" />
<glyph unicode="E" glyph-name="E" d="M1030 1475V1393H406V799H854V717H406V82H1044V0H309V1475H1030Z" />
<glyph unicode="F" glyph-name="F" d="M1083 1475V1393H424V811H920V729H424V0H328V1475H1083Z" />
<glyph unicode="G" glyph-name="G" d="M973 629H618V711H1069V-29H973V205H969Q936 98 840 35T627 -29Q553 -29 493 -9T378 61T286 192T227 398T205 690Q205 881 227 1025T288 1259T383 1404T504 1481T647 1503Q810 1503 899 1404T1004 1137H901Q906 1253 839
1337T657 1421Q602 1421 555 1405T475 1362T415 1295T371 1213T341 1116T322 1016T312 911T308 814T307 725Q307 677 307 642T311 549T321 449T338 352T366 258T408 178T464 111T539 69T635 53Q685 53 730 66T821 113T899 196T952 327T973 510V629Z" />
<glyph unicode="H" glyph-name="H" d="M322 1475V807H905V1475H1001V0H905V725H322V0H225V1475H322Z" />
<glyph unicode="I" glyph-name="I" d="M866 1475V1393H662V82H866V0H360V82H565V1393H360V1475H866Z" />
<glyph unicode="J" glyph-name="J" d="M565 1475H940V467Q940 204 844 88T543 -29Q358 -29 266 81T174 444V602H270V391Q270 216 335 134T541 53Q693 56 768 145T844 391V1393H565V1475Z" />
<glyph unicode="K" glyph-name="K" d="M383 1475V799Q434 800 485 827T584 903T664 991T733 1085Q866 1279 942 1481L1042 1427L866 1130Q788 1001 706 906T518 750L1149 0H1016L432 717H383V0H287V1475H383Z" />
<glyph unicode="L" glyph-name="L" d="M442 1475V82H1090V0H346V1475H442Z" />
<glyph unicode="M" glyph-name="M" d="M614 664L950 1475H1057V0H961V1280H956L614 461L272 1280L268 1276V0H172V1475H279L614 664Z" />
<glyph unicode="N" glyph-name="N" d="M897 -14L356 1341L352 1337V0H256V1475H395L897 211L901 215V1475H997V-14H897Z" />
<glyph unicode="O" glyph-name="O" d="M618 -29Q565 -29 520 -20T430 12T348 73T279 170T226 309T192 496T180 737Q180 819 183 886T198 1035T227 1180T279 1306T357 1410T468 1477T618 1503Q999 1503 1044 971Q1051 886 1051 737Q1051 554 1028 417T967 196T872
61T755 -10T618 -29ZM283 737Q283 576 300 455T347 258T421 136T512 71T618 53Q695 53 753 86T856 195T924 407T948 737Q948 937 924 1074T854 1286T751 1390T618 1421Q508 1421 436 1357T324 1140T283 737Z" />
<glyph unicode="P" glyph-name="P" d="M297 0V1475H629Q718 1475 788 1451T903 1385T979 1286T1021 1166T1034 1034Q1034 821 913 711T580 600H393V0H297ZM635 1393H393V682H565Q752 682 842 775T932 1032Q932 1132 907 1204T839 1317T745 1375T635 1393Z" />
<glyph unicode="Q" glyph-name="Q" d="M889 88L1055 -127H934L821 33Q729 -29 612 -29Q531 -29 466 -5T345 76T253 219T195 437T174 737Q174 904 194 1033T251 1251T343 1396T464 1478T612 1503Q690 1503 753 1481T873 1405T968 1264T1029 1045T1051 737Q1051
641 1047 568T1027 399T978 224T889 88ZM276 737Q276 483 310 346Q382 53 612 53Q667 53 712 71T790 117T849 190T891 276T919 375T936 474T945 571T948 654T948 722Q948 732 948 737Q948 897 931 1018T884 1215T811 1338T719 1403T612 1421Q321 1421 283 965Q276
882 276 737Z" />
<glyph unicode="R" glyph-name="R" d="M295 0V1475H645Q828 1475 932 1364T1036 1069Q1036 927 961 815T752 659L1149 0H1028L662 637H391V0H295ZM391 1393V719H631Q683 719 734 739T831 800T905 913T934 1077Q934 1167 906 1236T811 1349T645 1393H391Z" />
<glyph unicode="S" glyph-name="S" d="M997 1337L940 1266Q857 1338 780 1379T616 1421Q501 1421 423 1349T344 1163Q344 1076 393 1010T575 862L696 788Q794 729 849 690T952 601T1017 500T1036 381Q1036 192 922 82T618 -29Q370 -29 203 188L276 248Q337 160
426 107T618 53Q750 53 842 139T934 356Q934 416 928 449T892 524T806 608T645 711L508 793Q448 829 406 861T324 936T263 1034T242 1153Q242 1314 350 1408T623 1503Q722 1503 819 1458T997 1337Z" />
<glyph unicode="T" glyph-name="T" d="M1087 1475V1393H662V0H565V1393H141V1475H1087Z" />
<glyph unicode="U" glyph-name="U" d="M903 1475H999V379Q999 275 963 194T868 65T744 -5T614 -29Q514 -29 425 21T280 161T225 356V1475H322V428Q322 326 345 252T409 135T501 73T614 53Q747 53 825 138T903 395V1475Z" />
<glyph unicode="V" glyph-name="V" d="M616 68L903 1475H1014L692 -14H537L203 1475H315L612 68H616Z" />
<glyph unicode="W" glyph-name="W" d="M606 977L862 158H866L952 1475H1065L950 -14H821L606 727L393 -14H264L150 1475H262L348 158H352L606 977Z" />
<glyph unicode="X" glyph-name="X" d="M223 1475H338L614 838L891 1475H1006L664 743L1016 0H901L612 653L328 0H213L569 745L223 1475Z" />
<glyph unicode="Y" glyph-name="Y" d="M575 737L887 1475H995L625 625V0H528V625L158 1475H266L575 737Z" />
<glyph unicode="Z" glyph-name="Z" d="M254 1475H981V1393L346 82H1030V0H231V82L872 1393H254V1475Z" />
<glyph unicode="[" glyph-name="bracketleft" d="M369 1520H918V1438H465V-98H918V-180H369V1520Z" />
<glyph unicode="\" glyph-name="backslash" d="M870 -55L264 1530H358L965 -55H870Z" />
<glyph unicode="]" glyph-name="bracketright" d="M864 1520V-180H315V-98H768V1438H315V1520H864Z" />
<glyph unicode="^" glyph-name="asciicircum" d="M332 731H227L563 1393H670L1001 731H899L618 1294L332 731Z" />
<glyph unicode="_" glyph-name="underscore" d="M1229 -256H0V-154H1229V-256Z" />
<glyph unicode="`" glyph-name="grave" d="M444 1503L770 1237L725 1176L369 1417L444 1503Z" />
<glyph unicode="a" glyph-name="a" d="M954 -10L866 -23Q833 75 825 162Q762 70 695 24T528 -23Q386 -23 307 77T227 322Q227 427 264 513T376 653T553 707Q669 707 817 635Q822 846 774 935T596 1024Q532 1024 474 1006T336 952L313 1040Q482 1106 602 1106Q752
1106 835 1006T913 725L901 283Q899 167 954 -10ZM811 279V559Q683 625 575 625Q449 625 387 535T324 313Q324 250 345 194T415 98T528 59Q577 59 619 76T697 128T757 197T811 279Z" />
<glyph unicode="b" glyph-name="b" d="M258 1520H354V1014Q469 1106 621 1106Q670 1106 723 1091T835 1035T940 934T1016 773T1047 549Q1047 427 1021 328T952 165T853 58T740 -4T627 -23Q532 -23 457 24T338 156L299 -23L209 -10Q258 150 258 381V1520ZM354 918V276Q401
174 463 117T625 59Q665 59 706 72T792 121T871 209T928 348T950 543Q950 625 937 694T902 812T850 899T787 960T720 998T655 1018T596 1024Q476 1024 354 918Z" />
<glyph unicode="c" glyph-name="c" d="M971 229L1036 160Q954 70 870 24T678 -23Q616 -23 557 -8T437 47T329 147T254 306T225 530Q225 657 252 758T323 923T426 1029T545 1089T670 1106Q897 1106 1042 887L956 829Q911 919 838 971T670 1024Q625 1024 582 1013T490
969T405 885T346 747T322 547Q322 439 344 354T401 214T483 124T578 74T676 59Q828 59 971 229Z" />
<glyph unicode="d" glyph-name="d" d="M967 1520V381Q967 150 1016 -10L926 -23L887 156Q843 71 768 24T598 -23Q541 -23 485 -5T372 57T274 165T205 328T178 549Q178 673 208 773T285 933T390 1034T502 1090T604 1106Q756 1106 870 1014V1520H967ZM870 276V918Q750
1024 629 1024Q587 1024 544 1013T451 968T363 884T300 745T274 543Q274 436 296 350T353 210T432 122T518 73T600 59Q696 59 764 119T870 276Z" />
<glyph unicode="e" glyph-name="e" d="M979 166L1020 76Q799 -23 633 -23Q541 -23 466 9T343 94T261 221T214 372T199 537Q199 622 213 701T262 855T345 985T470 1073T639 1106Q697 1106 750 1090T857 1031T949 925T1012 759T1036 526H295Q300 415 322 332T375
197T450 114T539 71T637 59Q803 59 979 166ZM295 608H940Q945 705 912 798T804 958T627 1024Q527 1024 448 959T330 800T295 608Z" />
<glyph unicode="f" glyph-name="f" d="M1077 1436V1333Q1052 1344 1008 1365T942 1395T887 1412T821 1421Q714 1421 654 1364T594 1200V1010H952V928H594V0H498V928H219V1010H498V1133Q498 1214 516 1278T563 1383T634 1452T719 1491T811 1503Q915 1503 1077 1436Z" />
<glyph unicode="g" glyph-name="g" d="M274 -201L342 -141Q390 -198 461 -231T608 -264Q657 -264 703 -245T791 -187T859 -74T885 96V229Q829 171 744 134T580 96Q487 96 413 139T295 254T228 408T205 580Q205 658 217 730T260 872T334 993T448 1075T602 1106Q685
1106 750 1075T897 981L926 1106H1024Q1001 1020 990 909T978 735T977 535V84Q977 -8 953 -83T889 -206T798 -286T694 -332T590 -346Q508 -346 421 -305T274 -201ZM881 344V866Q831 937 756 980T598 1024Q518 1024 458 984T365 879T317 743T301 598Q301 501 322
424T376 302T449 228T524 189T588 178Q671 178 754 225T881 344Z" />
<glyph unicode="h" glyph-name="h" d="M266 0V1520H362V848H367Q420 958 515 1032T727 1106Q768 1106 810 1089T893 1037T959 937T985 788V0H889V680Q889 1024 711 1024Q621 1024 540 958T411 780T362 545V0H266Z" />
<glyph unicode="i" glyph-name="i" d="M592 0V1001H276V1083H688V0H592ZM593 1503T637 1503T713 1472T745 1397Q745 1352 714 1321T637 1290Q593 1290 562 1321T530 1397Q530 1441 561 1472Z" />
<glyph unicode="j" glyph-name="j" d="M176 57H272Q272 -15 282 -69T315 -169T384 -239T494 -264Q597 -264 661 -196T725 -29V1001H399V1083H821V2Q821 -145 729 -245T496 -346Q426 -346 371 -324T280 -263T220 -173T186 -64T176 57ZM760 1503Q804 1503 836 1472T868
1397Q868 1352 837 1321T760 1290T684 1321T653 1397Q653 1441 684 1472T760 1503Z" />
<glyph unicode="k" glyph-name="k" d="M874 1083H999Q952 1026 889 950T797 839T727 757T649 672T567 590L1092 0H963L510 535L408 434V0H311V1520H408V549Q704 833 874 1083Z" />
<glyph unicode="l" glyph-name="l" d="M578 0V1438H258V1520H674V0H578Z" />
<glyph unicode="m" glyph-name="m" d="M158 0V756Q158 943 119 1106H217L244 965Q344 1106 498 1106Q614 1106 666 975Q770 1106 889 1106Q991 1106 1046 1045T1102 879V0H1006V874Q1006 1026 877 1026Q817 1026 765 986T678 887V0H582V831Q582 870 579 897T566
956T530 1006T467 1024Q401 1024 342 978T254 866V0H158Z" />
<glyph unicode="n" glyph-name="n" d="M344 446V0H248V543Q248 881 205 1096H295L334 784H338Q370 909 483 1007T723 1106Q794 1106 845 1078T923 1000T963 894T975 772V0H879V727Q879 764 879 784T875 840T866 897T848 945T818 988T773 1013T711 1024Q662 1024
613 1005T515 942T429 833T368 668T344 446Z" />
<glyph unicode="o" glyph-name="o" d="M662 -23T614 -23T520 -12T427 25T339 94T268 199T219 347T201 543Q201 665 225 763T290 924T384 1029T495 1088T614 1106Q672 1106 727 1091T838 1035T936 933T1004 771T1030 543Q1030 436 1012 348T963 200T891 95T803
25T709 -11ZM614 59Q691 59 749 89T842 167T897 282T926 411T934 543T927 675T898 803T843 916T750 993T614 1024Q538 1024 480 994T388 916T333 803T305 675T297 543T304 411T333 282T388 168T480 90T614 59Z" />
<glyph unicode="p" glyph-name="p" d="M258 -434V705Q258 934 209 1094L299 1106L336 928H340Q381 1012 456 1059T627 1106Q684 1106 740 1088T852 1027T951 921T1020 758T1047 535Q1047 411 1017 311T940 150T834 49T722 -7T621 -23Q469 -23 354 70V-434H258ZM354
807V166Q475 59 596 59Q637 59 680 70T773 115T861 199T924 339T950 541Q950 649 928 735T872 874T793 962T707 1010T625 1024Q526 1024 464 967T354 807Z" />
<glyph unicode="q" glyph-name="q" d="M969 -434H872V70Q756 -23 604 -23Q556 -23 503 -8T391 48T286 149T209 310T178 535Q178 658 204 757T273 920T372 1027T484 1088T598 1106Q693 1106 768 1059T885 928H889L926 1106L1016 1094Q969 941 969 705V-434ZM872
166V807Q824 909 761 966T600 1024Q560 1024 519 1010T433 961T354 873T297 734T274 541Q274 428 299 340T363 200T451 115T544 71T629 59Q749 59 872 166Z" />
<glyph unicode="r" glyph-name="r" d="M442 440V0H346V750L307 1096H399L436 788Q589 1106 807 1106Q871 1106 917 1077T988 997T1023 893T1034 778H938Q937 811 936 832T931 886T917 940T893 982T855 1013T799 1024Q764 1024 720 1004T626 937T536 825T469 658T442 440Z" />
<glyph unicode="s" glyph-name="s" d="M920 991L879 911Q722 1024 588 1024Q503 1024 438 968T373 827Q373 791 389 759T428 705T486 662T549 630T612 604Q660 586 684 576T751 546T816 510T869 467T914 413T941 347T952 264Q952 135 855 56T627 -23Q529 -23 413
29T219 152L272 229Q343 158 442 109T631 59Q727 59 791 111T856 258Q856 297 847 329T818 387T779 429T724 464T667 491T602 516Q560 532 536 542T473 570T411 605T359 647T314 698T287 760T276 836Q276 948 372 1027T594 1106Q762 1106 920 991Z" />
<glyph unicode="t" glyph-name="t" d="M924 1083V1001H526V262Q526 173 566 116T698 59Q783 59 847 113T950 252L1042 229Q988 117 899 47T694 -23Q430 -23 430 319V1001H186V1083H430V1432H526V1083H924Z" />
<glyph unicode="u" glyph-name="u" d="M887 645V1083H983V549Q983 209 1026 0H936L895 307H891Q859 181 746 79T508 -23Q451 -23 407 -3T334 50T288 128T263 220T256 319V1083H352V365Q352 210 392 135T520 59Q583 59 645 94T763 197T852 382T887 645Z" />
<glyph unicode="v" glyph-name="v" d="M907 1083H1010L668 -14H555L213 1083H315L610 131L907 1083Z" />
<glyph unicode="w" glyph-name="w" d="M295 -14L102 1083H209L358 147H362L553 805H657L848 147H852L1001 1083H1106L913 -14H809L604 686L399 -14H295Z" />
<glyph unicode="x" glyph-name="x" d="M993 1083L666 586L1087 0H958L612 516L270 0H141L561 582L223 1083H336L614 657L887 1083H993Z" />
<glyph unicode="y" glyph-name="y" d="M938 1083H1049L643 53Q579 -113 533 -186Q434 -346 303 -346Q215 -346 149 -287T53 -139L135 -96Q196 -264 303 -264Q340 -264 371 -246T427 -191T465 -130T498 -61L580 125L227 1083H334L627 252L938 1083Z" />
<glyph unicode="z" glyph-name="z" d="M301 1083H995V1001L330 82H1020V0H209V82L881 1001H301V1083Z" />
<glyph unicode="{" glyph-name="braceleft" d="M643 403V84Q643 -36 687 -99T846 -176L842 -180Q669 -177 608 -115T547 117V426Q547 484 542 517T521 582T472 633T383 666V670Q438 684 471 703T520 753T542 817T547 907V1237Q547 1395 612 1455T842 1520L846
1516Q728 1498 686 1438T643 1253V924Q643 865 638 829T615 759T563 704T471 670V666Q517 655 549 637T599 598T627 545T640 481T643 403Z" />
<glyph unicode="|" glyph-name="bar" d="M569 -590V1622H659V-590H569Z" />
<glyph unicode="}" glyph-name="braceright" d="M588 936V1255Q588 1375 544 1438T385 1516L389 1520Q562 1517 623 1455T684 1223V913Q684 867 686 839T698 781T725 734T773 701T848 674V670Q793 656 760 637T711 587T689 522T684 432V102Q684 -56 619 -115T389
-180L385 -176Q503 -159 545 -99T588 86V416Q588 462 591 493T604 555T633 606T683 643T760 670V674Q714 685 682 703T632 742T604 795T591 858T588 936Z" />
<glyph unicode="~" glyph-name="asciitilde" d="M1102 903L1167 856Q1116 761 1035 692T860 623Q809 623 709 661T511 738T369 776Q326 776 290 761T225 713T177 654T132 583Q127 575 125 571L61 618Q89 667 115 704T178 781T262 844T358 866Q415 866 491 842T628
790T754 737T858 713Q933 713 999 770T1102 903Z" />
</font>
</defs>
</svg>
