<?xml version="1.0" standalone="no"?> <!DOCTYPE svg PUBLIC "-//W3C//DTD SVG 1.0//EN" "http://www.w3.org/TR/2001/REC-SVG-20010904/DTD/svg10.dtd" > <svg xmlns="http://www.w3.org/2000/svg" width="100%" height="100%">
<defs >
<font id="lettergothicstdbold" horiz-adv-x="1228" ><font-face
    font-family="Letter Gothic Std"
    units-per-em="2048"
    panose-1="2 11 5 9 2 2 2 3 3 4"
    ascent="1520"
    descent="-529"
    alphabetic="0" />
<missing-glyph d="M102 0V1434H1126V0H102ZM614 809L963 1331H266L614 809ZM676 717L1024 195V1239L676 717ZM266 102H963L614 625L266 102ZM205 1239V195L553 717L205 1239Z" />
<glyph unicode=" " glyph-name="space" />
<glyph unicode="!" glyph-name="exclam" d="M715 1475L686 449H549L514 1475H715ZM451 64T451 131T500 243T616 289Q684 289 732 244T780 131T732 18T616 -29Q548 -29 500 17Z" />
<glyph unicode="&quot;" glyph-name="quotedbl" d="M231 1475H514V1208L428 944H317L231 1208V1475ZM715 1475H997V1208L911 944H801L715 1208V1475Z" />
<glyph unicode="#" glyph-name="numbersign" d="M522 1649H676L336 -197H182L305 471H33L63 606H330L379 877H111L135 1012H406L522 1649ZM698 -197H545L885 1649H1038L922 1012H1194L1167 877H895L846 606H1120L1096 471H821L698 -197Z" />
<glyph unicode="$" glyph-name="dollar" d="M678 672V264Q749 285 790 335T831 457Q831 536 797 583T678 672ZM541 266V729Q408 775 336 850Q250 943 250 1061Q250 1180 335 1263T541 1368V1520H678V1370Q841 1348 981 1227L891 1110Q789 1212 678 1235V829Q839
761 912 675T985 461Q985 324 901 238T678 129V-61H541V129Q452 135 365 178T207 291L301 401Q426 285 541 266ZM543 883V1229Q472 1206 438 1167T403 1057Q403 1002 434 961T543 883Z" />
<glyph unicode="%" glyph-name="percent" d="M961 377Q961 481 885 481Q840 481 805 450T751 372T723 277T713 188Q713 84 793 84Q835 84 869 116T922 196T951 291T961 377ZM911 1503H1059L285 -29H137L911 1503ZM496 1286Q496 1330 479 1360T420 1391Q374 1391
339 1360T285 1282T257 1187T248 1098Q248 1048 264 1021T328 993Q371 993 405 1025T458 1105T486 1200T496 1286ZM567 209Q567 305 601 391T710 535T883 594Q985 594 1045 536T1106 375Q1106 302 1086 232T1027 102T927 7T788 -29Q679 -29 623 35T567 209ZM102
1118Q102 1175 114 1230T153 1334T217 1421T306 1481T418 1503Q520 1503 580 1445T641 1284Q641 1227 629 1170T590 1061T528 969T439 905T324 881Q215 881 159 945T102 1118Z" />
<glyph unicode="&amp;" glyph-name="ampersand" d="M770 246L489 672Q449 624 424 589T371 506T329 409T315 309Q315 214 366 157T512 100Q674 100 770 246ZM934 264L1112 61L1008 -47L852 133Q715 -29 512 -29Q356 -29 259 61T162 307Q162 380 181 447T239 580T314
691T408 805Q375 859 356 892T314 975T281 1072T270 1167Q270 1255 297 1323T367 1429T454 1484T541 1503Q658 1503 730 1419T803 1217Q803 1074 702 933Q673 893 590 795L831 406Q838 438 846 508Q854 594 854 754H1004Q1002 651 998 585T979 428T934 264ZM510
922Q519 936 547 976T587 1037T617 1091T642 1158T649 1225Q649 1278 621 1326T543 1374Q502 1374 474 1341T435 1267T424 1188Q424 1116 445 1056T510 922Z" />
<glyph unicode="&apos;" glyph-name="quotesingle" d="M473 1475H756V1208L670 942H559L473 1208V1475Z" />
<glyph unicode="(" glyph-name="parenleft" d="M842 -59L768 -160Q632 -74 538 64T401 358T358 680Q358 936 462 1162T768 1520L842 1417Q670 1295 591 1103T512 680T591 257T842 -59Z" />
<glyph unicode=")" glyph-name="parenright" d="M387 1417L461 1520Q597 1431 690 1293T827 1001T870 680Q870 556 845 437T771 207T643 1T461 -160L387 -59Q559 63 638 255T717 680Q717 910 638 1102T387 1417Z" />
<glyph unicode="*" glyph-name="asterisk" d="M541 1475H686V1096L1055 1204L1098 1071L719 963L956 664L848 578L614 870L387 578L274 664L510 963L131 1071L172 1204L541 1096V1475Z" />
<glyph unicode="+" glyph-name="plus" d="M1178 805V670H686V184H543V670H51V805H543V1290H686V805H1178Z" />
<glyph unicode="," glyph-name="comma" d="M475 -229V-90Q552 -74 606 -25Q548 -20 510 19T471 117Q471 187 517 231T633 276Q707 276 755 221T803 90Q803 28 774 -27T695 -121T590 -188T475 -229Z" />
<glyph unicode="-" glyph-name="hyphen" d="M881 670H348V799H881V670Z" />
<glyph unicode="." glyph-name="period" d="M451 64T451 131T500 243T616 289Q684 289 732 244T780 131T732 18T616 -29Q548 -29 500 17Z" />
<glyph unicode="/" glyph-name="slash" d="M383 -55H229L846 1530H999L383 -55Z" />
<glyph unicode="0" glyph-name="zero" d="M1042 737Q1042 501 1014 365Q932 -29 614 -29Q545 -29 487 -8T387 47T312 132T259 233T223 348T201 461T191 572T187 664T186 737Q186 881 192 946Q225 1330 420 1451Q504 1503 614 1503Q1034 1503 1042 793Q1042 771
1042 737ZM340 737Q340 494 368 367Q428 100 614 100Q659 100 695 114T769 169T832 279T873 464T889 737Q889 889 875 1003T836 1187T775 1300T700 1358T614 1374Q574 1374 539 1361T479 1326T433 1272T398 1205T373 1128T357 1046T347 963T342 885T340 815T340
758Q340 743 340 737Z" />
<glyph unicode="1" glyph-name="one" d="M698 1520V129H963V0H268V129H545V1352L256 1264V1380L698 1520Z" />
<glyph unicode="2" glyph-name="two" d="M358 129H1030V0H205V66Q205 161 222 241T265 381T342 505T441 615T569 731Q612 767 624 777T678 826T738 884T788 942T834 1008T860 1074T872 1145Q872 1249 814 1311T653 1374Q567 1374 507 1330T419 1218T387 1067H233Q245
1262 354 1382T655 1503Q821 1503 923 1408T1026 1147Q1026 1115 1021 1083T1007 1025T983 968T954 917T917 868T878 822T833 777T789 736T742 694T696 653L590 557Q517 491 471 433T394 297T358 129Z" />
<glyph unicode="3" glyph-name="three" d="M508 725V854Q637 848 733 925T829 1130Q829 1237 754 1305T573 1374Q483 1374 408 1312T293 1161L164 1235Q230 1361 340 1432T590 1503Q754 1503 868 1392T983 1118Q983 1018 931 938T788 801Q913 746 982 647T1051
414Q1051 213 919 92T584 -29Q436 -29 331 43T143 252L279 332Q328 220 402 160T590 100Q726 100 811 179T897 393Q897 508 845 587T705 701T508 725Z" />
<glyph unicode="4" glyph-name="four" d="M866 1503V510H1077V381H866V0H713V381H125V481L668 1503H866ZM713 510V1294H709L301 510H713Z" />
<glyph unicode="5" glyph-name="five" d="M942 1475V1346H420L379 829Q483 924 625 924Q801 924 917 796T1034 453Q1034 357 1004 271T920 117T783 11T602 -29Q368 -29 205 217L324 305Q368 216 444 158T612 100Q695 100 758 153T851 283T881 440Q881 529 858
599T797 711T716 773T629 795Q479 795 377 627L221 657L283 1475H942Z" />
<glyph unicode="6" glyph-name="six" d="M893 479Q893 542 880 599T838 704T759 782T641 811Q561 811 495 757T394 618T358 444Q358 384 373 326T417 216T497 132T612 100Q686 100 742 134T830 224T877 345T893 479ZM1030 1413L956 1286Q912 1316 890 1330T827
1359T748 1374Q674 1374 609 1334T498 1230T419 1087T368 933T348 791Q417 868 489 904T662 940Q754 940 828 901T950 797T1022 650T1047 481Q1047 385 1020 295T941 132T807 15T623 -29Q548 -29 487 -8T381 50T304 139T250 248T217 372T200 500T195 627Q195 804
227 951T312 1199T438 1369T590 1471T754 1503Q885 1503 1030 1413Z" />
<glyph unicode="7" glyph-name="seven" d="M190 1475H1018L442 0H276L817 1346H190V1475Z" />
<glyph unicode="8" glyph-name="eight" d="M297 401Q297 260 384 180T614 100Q757 100 844 180T932 401Q932 541 844 621T614 702Q473 702 385 622T297 401ZM881 1104Q881 1228 810 1301T614 1374Q485 1374 416 1297T346 1087Q346 971 421 901T614 831Q738 831
809 905T881 1104ZM864 772Q971 731 1028 627T1085 401Q1085 213 962 92T614 -29Q495 -29 403 6T256 102T172 238T143 401Q143 523 200 627T365 772Q271 853 232 926T193 1116Q193 1292 314 1397T614 1503Q801 1503 917 1396T1034 1102Q1034 992 995 921T864 772Z"
/>
<glyph unicode="9" glyph-name="nine" d="M334 995Q334 932 348 876T390 771T469 693T586 664Q706 664 788 777T870 1032Q870 1092 855 1150T811 1259T731 1342T616 1374Q542 1374 486 1340T397 1250T350 1130T334 995ZM199 61L272 188Q396 100 481 100Q555 100
620 140T730 244T808 387T859 543T881 686Q810 608 739 572T567 535Q475 535 400 574T278 678T206 825T180 993Q180 1089 208 1179T287 1342T422 1459T606 1503Q681 1503 742 1482T848 1424T925 1335T978 1226T1012 1102T1029 975T1034 848Q1034 637 988 468T864
191T687 28T475 -29Q344 -29 199 61Z" />
<glyph unicode=":" glyph-name="colon" d="M451 64T451 131T500 243T616 289Q684 289 732 244T780 131T732 18T616 -29Q548 -29 500 17ZM451 758T451 825T500 937T616 983Q684 983 732 938T780 825T732 712T616 666Q548 666 500 712Z" />
<glyph unicode=";" glyph-name="semicolon" d="M475 -229V-90Q552 -74 606 -25Q548 -20 510 19T471 117Q471 187 517 231T633 276Q707 276 755 221T803 90Q803 28 774 -27T695 -121T590 -188T475 -229ZM471 825Q471 891 520 937T637 983T752 938T801 825T753 712T637
666Q569 666 520 712T471 825Z" />
<glyph unicode="&lt;" glyph-name="less" d="M973 1475L1059 1368L377 737L1059 106L973 0L168 737L973 1475Z" />
<glyph unicode="=" glyph-name="equal" d="M1178 926V791H51V926H1178ZM1178 684V549H51V684H1178Z" />
<glyph unicode="&gt;" glyph-name="greater" d="M168 1368L254 1475L1059 737L254 0L168 106L850 737L168 1368Z" />
<glyph unicode="?" glyph-name="question" d="M680 442H526V659Q526 749 561 801T709 938Q768 984 793 1028T819 1143Q819 1246 761 1310T600 1374Q499 1374 443 1312T387 1149H233Q241 1312 339 1407T602 1503Q772 1503 872 1405T973 1137Q973 1043 942 982T842
860Q813 834 780 808T732 771T703 742T685 707T680 659V442ZM455 64T455 131T504 243T621 289Q688 289 736 244T784 131T736 18T621 -29Q552 -29 504 17Z" />
<glyph unicode="@" glyph-name="at" d="M1061 281L1116 143Q850 -29 569 -29Q484 -29 403 -6T247 68T116 191T27 371T-6 608Q-6 732 20 856T101 1097T235 1304T425 1448T670 1503Q778 1503 880 1456T1060 1328T1187 1127T1235 872Q1235 808 1224 742T1187 608T1124
488T1028 402T899 369Q836 369 802 387T717 459Q657 410 616 390T512 369Q424 369 369 425T313 569Q313 661 351 767T449 940Q549 1049 805 1049H897L842 713Q842 712 834 664T825 598Q825 557 844 528T901 498Q950 498 988 538T1044 639T1072 756T1081 858Q1081
965 1053 1052T982 1193T882 1283T773 1335T668 1350Q563 1350 475 1304T327 1182T226 1009T166 812T147 616Q147 374 258 250T582 125Q820 125 1061 281ZM719 858L727 922Q613 919 540 817T467 582Q467 550 481 524T524 498Q550 498 575 513T629 564T681 676T719
858Z" />
<glyph unicode="A" glyph-name="A" d="M616 1597L1139 0H973L842 434H393L262 0H96L616 1597ZM616 1159L430 563H805L616 1159Z" />
<glyph unicode="B" glyph-name="B" d="M643 0H221V1475H530Q574 1475 609 1473T695 1463T784 1439T864 1396T931 1330T975 1234T993 1102Q993 998 943 917T799 784Q930 720 993 630T1057 401Q1057 233 944 117T643 0ZM375 1346V831H553Q605 831 655 850T747 903T814
990T840 1108Q840 1157 828 1196T800 1259T755 1301T704 1327T648 1340T595 1345T548 1346Q543 1346 541 1346H375ZM375 129H633Q744 129 823 196T903 393Q903 526 818 614T567 702H375V129Z" />
<glyph unicode="C" glyph-name="C" d="M1034 1155H881Q879 1248 819 1311T666 1374Q601 1374 550 1349T464 1286T405 1189T366 1077T346 952T336 833T334 725Q334 100 651 100Q763 100 830 174T899 360H1053Q1040 178 934 75T645 -29Q561 -29 492 -3T376 66T292
171T235 299T202 442T185 588T180 729Q180 805 185 874T203 1024T239 1170T299 1300T386 1406T506 1476T664 1503Q817 1503 921 1406T1034 1155Z" />
<glyph unicode="D" glyph-name="D" d="M229 0V1475H604Q693 1475 763 1454T893 1381T994 1246T1056 1035T1079 737Q1079 527 1048 383T951 156T796 36T582 0H229ZM383 1346V129H571Q621 129 658 134T734 154T800 195T853 267T893 376T917 530T926 737Q926 856
916 949T890 1105T847 1214T792 1284T724 1324T650 1342T567 1346H383Z" />
<glyph unicode="E" glyph-name="E" d="M1051 1475V1346H438V821H879V692H438V129H1065V0H285V1475H1051Z" />
<glyph unicode="F" glyph-name="F" d="M1102 1475V1346H465V834H942V705H465V0H311V1475H1102Z" />
<glyph unicode="G" glyph-name="G" d="M936 608H588V737H1090V-29H936V115Q879 46 799 9T627 -29Q601 -29 580 -28T523 -19T458 2T393 42T328 105T272 198T224 325T194 492T182 705Q182 878 203 1012T263 1238T359 1389T488 1476T647 1503Q827 1503 921 1391T1018
1098H864Q875 1208 820 1291T655 1374Q592 1374 541 1349T458 1285T401 1188T365 1075T346 950T338 833T336 727Q336 670 337 627T344 514T362 393T396 283T449 188T527 125T635 100Q691 100 742 123T838 193T909 322T936 510V608Z" />
<glyph unicode="H" glyph-name="H" d="M358 1475V829H870V1475H1024V0H870V700H358V0H205V1475H358Z" />
<glyph unicode="I" glyph-name="I" d="M891 1475V1346H690V129H891V0H338V129H537V1346H338V1475H891Z" />
<glyph unicode="J" glyph-name="J" d="M537 1346V1475H963V526Q963 349 938 255Q863 -29 545 -29Q358 -29 256 82T154 426V633H307V369Q307 241 367 171T541 100Q809 100 809 412V1346H537Z" />
<glyph unicode="K" glyph-name="K" d="M418 1475V825Q459 830 521 880T654 1013T796 1223T920 1493L1071 1413L950 1210Q819 990 734 894T561 743L1198 0H993L430 694H418V0H264V1475H418Z" />
<glyph unicode="L" glyph-name="L" d="M471 1475V129H1110V0H317V1475H471Z" />
<glyph unicode="M" glyph-name="M" d="M614 739L924 1475H1075V0H922V1122H918L614 399L313 1122L309 1118V0H156V1475H305L614 739Z" />
<glyph unicode="N" glyph-name="N" d="M236 0V1475H414L862 373H868V1475H1022V-14H877L393 1176L389 1171V0H236Z" />
<glyph unicode="O" glyph-name="O" d="M162 737Q162 917 186 1053T249 1273T348 1410T471 1483T614 1503Q684 1503 743 1486T845 1439T922 1365T980 1275T1019 1169T1045 1058T1059 944T1065 837T1067 737Q1067 527 1047 410Q972 -28 614 -29Q172 -29 162 669Q162
693 162 737ZM614 100Q664 100 704 114T785 171T853 281T896 466T913 737Q913 911 903 993Q859 1374 614 1374Q558 1374 513 1353T437 1296T384 1213T349 1114T328 1009T318 907T315 820T315 756Q315 742 315 737Q315 516 340 396Q401 100 614 100Z" />
<glyph unicode="P" glyph-name="P" d="M274 0V1475H629Q830 1475 940 1358T1051 1024Q1051 800 918 690T557 580H428V0H274ZM428 709H598Q735 709 816 789T897 1022Q897 1191 824 1268T608 1346H428V709Z" />
<glyph unicode="Q" glyph-name="Q" d="M614 -29Q166 -29 160 671Q160 682 160 737Q160 918 184 1054T248 1274T348 1411T471 1483T614 1503Q681 1503 738 1487T838 1443T916 1377T973 1294T1015 1200T1042 1101T1058 1001T1066 908T1069 826T1069 761Q1069 744
1069 737Q1069 505 1040 358T922 111L1102 -123H913L811 20Q721 -29 614 -29ZM313 737Q313 585 330 470T374 286T442 174T523 116T614 100Q685 100 738 132T832 237T894 434T915 737Q915 890 899 1004T855 1188T787 1300T706 1358T614 1374Q557 1374 511 1352T434
1293T380 1208T345 1106T324 999T315 898T312 813T313 753Q313 741 313 737Z" />
<glyph unicode="R" glyph-name="R" d="M268 0V1475H651Q727 1475 789 1456T892 1408T964 1337T1011 1258T1038 1177T1050 1108T1053 1057Q1053 933 994 833T791 649L1188 0H1001L643 614Q606 613 533 612T422 610V0H268ZM422 741H567Q726 741 812 823T899 1065Q899
1215 826 1280T573 1346H422V741Z" />
<glyph unicode="S" glyph-name="S" d="M1028 1319L936 1208Q879 1259 840 1289T738 1346T616 1374Q516 1374 448 1311T379 1149Q379 1122 382 1103T397 1056T431 1005T493 948T592 881L709 809Q916 682 984 601T1053 393Q1053 197 934 84T618 -29Q358 -29 172
211L291 305Q348 213 432 157T618 100Q735 100 817 178T899 373Q899 408 898 427T888 472T863 517T816 563T741 619T631 688L498 768Q436 805 393 837T308 915T246 1016T225 1139Q225 1307 338 1405T623 1503Q830 1503 1028 1319Z" />
<glyph unicode="T" glyph-name="T" d="M1108 1475V1346H688V0H535V1346H123V1475H1108Z" />
<glyph unicode="U" glyph-name="U" d="M868 1475H1022V387Q1022 287 987 206T893 74T762 -2T614 -29Q561 -29 510 -17T402 29T303 117T233 261T205 469V1475H358V387Q358 311 381 253T442 163T523 116T614 100Q683 100 733 124T812 191T854 287T868 406V1475Z" />
<glyph unicode="V" glyph-name="V" d="M608 223L872 1475H1042L709 -14H498L170 1475H338L604 223H608Z" />
<glyph unicode="W" glyph-name="W" d="M608 1063L840 324H844L918 1475H1083L971 -14H795L608 625L420 -14H250L127 1475H293L371 324H375L608 1063Z" />
<glyph unicode="X" glyph-name="X" d="M188 1475H365L614 903L864 1475H1042L694 743L1053 0H874L614 590L354 0H178L539 745L188 1475Z" />
<glyph unicode="Y" glyph-name="Y" d="M578 807L860 1475H1030L653 623V0H500V623L123 1475H293L578 807Z" />
<glyph unicode="Z" glyph-name="Z" d="M233 1475H1001V1366L395 129H1051V0H211V111L825 1346H233V1475Z" />
<glyph unicode="[" glyph-name="bracketleft" d="M942 -229H344V1520H942V1391H498V-100H942V-229Z" />
<glyph unicode="\" glyph-name="backslash" d="M846 -55L229 1530H383L999 -55H846Z" />
<glyph unicode="]" glyph-name="bracketright" d="M285 -229V-100H729V1391H285V1520H883V-229H285Z" />
<glyph unicode="^" glyph-name="asciicircum" d="M362 731H211L547 1393H682L1018 731H866L614 1227L362 731Z" />
<glyph unicode="_" glyph-name="underscore" d="M1229 -256H0V-154H1229V-256Z" />
<glyph unicode="`" glyph-name="grave" d="M444 1587L807 1296L729 1196L334 1460L444 1587Z" />
<glyph unicode="a" glyph-name="a" d="M322 907L287 1042Q383 1080 453 1099T602 1118Q703 1118 781 1067T898 936T938 764V289Q938 126 985 -8L842 -27L803 111Q690 -23 530 -23Q429 -23 354 26T242 156T205 336Q205 501 300 616T555 731Q658 731 784 678V782Q784
874 733 931T596 989Q573 989 548 985T503 977T455 962T412 946T365 926T322 907ZM784 295V549Q665 602 575 602Q501 602 451 562T379 461T358 328Q358 241 403 174T530 106Q564 106 596 118T652 146T702 191T744 240T784 295Z" />
<glyph unicode="b" glyph-name="b" d="M233 1520H387V1057Q503 1118 621 1118Q677 1118 735 1101T853 1041T961 936T1037 776T1067 557Q1067 433 1040 332T968 167T865 58T747 -4T627 -23Q580 -23 546 -17T478 10T423 47T358 102L326 -20L180 -2Q233 150 233 406V1520ZM387
901V299Q429 210 484 158T625 106Q658 106 693 117T769 160T841 239T892 368T913 551Q913 661 887 747T816 885T715 963T596 989Q498 989 387 901Z" />
<glyph unicode="c" glyph-name="c" d="M963 287L1067 178Q974 78 885 28T676 -23Q611 -23 549 -7T422 49T311 151T233 312T203 537Q203 664 231 765T304 931T411 1039T537 1100T670 1118Q913 1118 1073 874L940 786Q839 989 670 989Q621 989 577 975T492 928T422
845T374 721T356 551Q356 452 375 374T426 246T501 165T586 119T674 106Q756 106 825 155T963 287Z" />
<glyph unicode="d" glyph-name="d" d="M1044 -4L899 -23L866 100Q787 29 737 3T598 -23Q538 -23 479 -5T361 57T259 165T188 330T160 555Q160 675 189 773T265 934T371 1039T489 1100T604 1118Q719 1118 836 1055V1520H989V391Q989 156 1044 -4ZM836 295V899Q726
989 629 989Q566 989 510 962T410 883T339 745T313 549Q313 447 333 367T385 239T456 160T532 118T602 106Q685 106 743 158T836 295Z" />
<glyph unicode="e" glyph-name="e" d="M1061 508H332Q338 295 422 201T643 106Q793 106 985 223L1051 86Q931 33 833 5T631 -23Q514 -23 425 24T283 153T204 332T178 541Q178 629 194 711T246 867T334 997T465 1085T639 1118Q714 1118 777 1095T882 1035T958 948T1010
849T1041 748T1057 659T1061 592V508ZM330 637H907Q902 780 826 884T627 989Q503 989 433 900T330 637Z" />
<glyph unicode="f" glyph-name="f" d="M1096 1427V1272Q1079 1279 1014 1311T904 1359T817 1374Q623 1374 623 1149V1026H975V897H623V0H469V897H197V1026H469V1130Q469 1206 488 1269T541 1374T618 1446T709 1489T807 1503Q929 1503 1096 1427Z" />
<glyph unicode="g" glyph-name="g" d="M899 1118H1044Q997 944 997 709V106Q997 8 970 -70T900 -197T801 -277T693 -321T590 -334Q497 -334 404 -287T242 -166L350 -72Q398 -133 465 -169T608 -205Q667 -205 713 -180T787 -111T829 -15T844 98V184Q772 137 715
115T582 92Q485 92 407 135T282 250T209 408T184 586Q184 667 198 741T244 885T323 1006T442 1087T602 1118Q738 1118 870 1022L899 1118ZM844 365V854Q806 911 740 950T604 989Q546 989 499 965T423 903T374 812T346 709T338 604Q338 442 408 332T590 221Q661
221 735 263T844 365Z" />
<glyph unicode="h" glyph-name="h" d="M242 0V1520H395V938Q456 1020 542 1069T725 1118Q771 1118 805 1111T880 1075T947 996T990 852T1008 629V0H854V641Q854 668 854 685T852 737T847 796T837 852T820 906T795 948T761 979T715 989Q634 989 562 930T451 791Q425
737 412 671T397 560T395 432Q395 416 395 408V0H242Z" />
<glyph unicode="i" glyph-name="i" d="M565 0V967H254V1096H719V0H565ZM583 1503T637 1503T728 1466T766 1374T729 1282T637 1245T546 1282T508 1374T545 1466Z" />
<glyph unicode="j" glyph-name="j" d="M150 106H303Q303 -54 345 -129T496 -205Q541 -205 577 -185T634 -137T668 -79T687 -30T692 -8V967H375V1096H846V23Q846 -64 814 -135T729 -248T618 -312T498 -334Q326 -334 238 -217T150 106ZM758 1503Q812 1503 848 1466T885
1374T849 1282T758 1245Q702 1245 665 1282T627 1374T665 1466T758 1503Z" />
<glyph unicode="k" glyph-name="k" d="M852 1096H1047Q985 1024 912 938T802 809T714 710T604 594L1143 0H940L510 504L440 434V0H287V1520H440V616Q535 714 590 772T721 922T852 1096Z" />
<glyph unicode="l" glyph-name="l" d="M549 0V1391H238V1520H702V0H549Z" />
<glyph unicode="m" glyph-name="m" d="M139 0V756Q139 913 94 1118H248L270 1020Q328 1070 375 1094T485 1118Q557 1118 590 1099T672 1018Q729 1069 775 1094T883 1120Q993 1120 1058 1054T1124 877V0H971V877Q971 931 944 961T870 991Q822 991 779 958T709 877V0H555V864Q555
989 469 989Q416 989 366 950T293 856V0H139Z" />
<glyph unicode="n" glyph-name="n" d="M381 457V0H227V551Q227 888 178 1096H326L360 895Q420 994 520 1056T733 1118Q858 1118 927 1019T997 772V0H844V727Q844 758 844 775T841 823T834 874T819 918T795 956T759 979T709 989Q663 989 619 971T531 912T454 811T401
660T381 457Z" />
<glyph unicode="o" glyph-name="o" d="M614 -23Q553 -23 496 -7T380 50T278 154T207 318T180 547Q180 670 205 769T273 932T372 1039T489 1100T614 1118Q694 1118 760 1096T870 1037T948 949T1001 847T1032 738T1047 635T1051 547Q1051 424 1026 326T958 163T859
56T741 -5T614 -23ZM545 106T614 106T735 134T818 206T866 311T891 428T897 547Q897 599 893 645T877 744T845 839T794 916T718 970T614 989T511 970T435 916T385 839T354 745T339 646T334 547Q334 483 340 428T364 311T412 206T493 135Z" />
<glyph unicode="p" glyph-name="p" d="M326 1122L358 995Q438 1066 488 1092T627 1118Q688 1118 747 1100T864 1039T967 931T1039 766T1067 541Q1067 422 1038 324T961 162T854 56T736 -5T621 -23Q509 -23 387 41V-420H233V692Q233 947 180 1104L326 1122ZM387
799V197Q500 106 596 106Q736 106 824 222T913 547Q913 649 893 730T841 858T770 936T694 978T625 989Q539 989 484 938T387 799Z" />
<glyph unicode="q" glyph-name="q" d="M989 -420H836V41Q775 8 722 -7T604 -23Q565 -23 524 -14T438 16T354 67T278 144T216 246T174 378T158 541Q158 665 185 765T257 930T360 1038T478 1100T598 1118Q686 1118 736 1092T866 995L899 1122L1044 1104Q989 939
989 705V-420ZM836 197V809Q788 897 737 943T602 989Q568 989 533 978T456 936T384 858T332 730T311 547Q311 339 400 223T629 106Q727 106 836 197Z" />
<glyph unicode="r" glyph-name="r" d="M475 457V0H322V629Q322 884 279 1096H428L463 887Q498 941 529 978T602 1050T693 1101T803 1118Q876 1118 928 1085T1007 996T1045 881T1057 752H903Q903 761 902 790T900 836T896 879T885 922T867 955T837 981T795 989Q760
989 719 969T634 905T555 801T498 650T475 457Z" />
<glyph unicode="s" glyph-name="s" d="M950 991L883 866Q803 924 734 956T590 989Q518 989 465 942T412 823Q412 793 426 766T461 720T513 683T568 655T623 633Q670 616 697 605T767 573T834 536T890 491T936 434T963 366T975 281Q975 150 875 64T641 -23Q522
-23 404 29T190 168L274 291Q345 215 442 161T631 106Q712 106 766 150T821 274Q821 384 723 443Q688 464 594 500Q552 516 526 527T460 556T396 592T342 635T297 688T269 752T258 829Q258 949 356 1033T596 1118Q774 1118 950 991Z" />
<glyph unicode="t" glyph-name="t" d="M946 1096V967H555V342Q555 307 556 287T560 235T573 184T597 145T637 116T696 106Q842 106 928 299L1075 262Q1015 133 919 55T692 -23Q622 -23 571 -4T481 60T421 188T401 391V967H166V1096H401V1432H555V1096H946Z" />
<glyph unicode="u" glyph-name="u" d="M850 647V1096H1004V565Q1004 203 1051 0H905L870 211Q814 115 713 46T510 -23Q416 -23 352 27T261 156T233 334V1096H387V379Q387 348 387 331T390 281T397 228T412 182T436 142T472 117T522 106Q569 106 614 126T703 190T778
296T830 449T850 647Z" />
<glyph unicode="v" glyph-name="v" d="M879 1096H1038L698 -14H524L184 1096H344L610 246L879 1096Z" />
<glyph unicode="w" glyph-name="w" d="M264 -14L72 1096H244L369 274H373L530 827H680L838 274H842L967 1096H1139L946 -14H782L604 580L428 -14H264Z" />
<glyph unicode="x" glyph-name="x" d="M1038 1096L698 592L1130 0H936L612 473L293 0H98L528 586L180 1096H358L614 711L864 1096H1038Z" />
<glyph unicode="y" glyph-name="y" d="M911 1096H1075L670 68Q652 23 641 -5T607 -80T565 -157T517 -224T458 -282T390 -319T309 -334Q208 -334 135 -267T31 -96L160 -29Q172 -63 182 -85T212 -139T255 -188T309 -205Q339 -205 365 -188T414 -135T447 -79T475
-20L547 145L195 1096H360L627 350L911 1096Z" />
<glyph unicode="z" glyph-name="z" d="M1016 1096V981L387 129H1040V0H188V113L821 967H279V1096H1016Z" />
<glyph unicode="{" glyph-name="braceleft" d="M999 1520V1462H932Q790 1462 731 1413T672 1274V905Q672 869 672 854T669 810T660 765T642 728T613 692T569 662Q591 650 607 636T635 609T653 576T664 543T670 503T672 464T672 420V51Q672 -39 731 -88T932 -137H999V-195H887Q778
-195 707 -177T593 -119T535 -21T518 125V471Q518 511 508 540T482 585T441 614T392 632T334 645T274 662Q299 670 344 680T414 699T465 725T505 774T518 854V1200Q518 1288 534 1345T593 1443T706 1502T887 1520H999Z" />
<glyph unicode="|" glyph-name="bar" d="M547 -590V1622H682V-590H547Z" />
<glyph unicode="}" glyph-name="braceright" d="M233 1462V1520H346Q455 1520 526 1502T640 1444T698 1346T715 1200V854Q715 806 727 775T767 726T819 700T888 681T958 662Q933 654 888 644T819 625T768 600T728 551T715 471V125Q715 37 699 -20T640 -118T527
-177T346 -195H233V-137H301Q443 -137 502 -88T561 51V420Q561 452 561 464T563 503T568 542T579 575T598 608T625 635T664 662Q638 676 620 691T591 728T574 764T565 809T562 854T561 905V1274Q561 1364 502 1413T301 1462H233Z" />
<glyph unicode="~" glyph-name="asciitilde" d="M375 889Q464 889 635 813T854 737Q925 737 986 799T1083 938L1190 860Q1135 752 1048 677T856 602Q827 602 783 613T711 635T626 668T561 694Q558 695 534 706T501 720T471 732T436 744T406 750T375 754Q346 754
320 743T274 718T234 678T202 633T171 583T143 537L37 616Q66 666 86 697T139 769T204 833T280 872T375 889Z" />
</font>
</defs>
</svg>
